<?xml version="1.0" encoding="UTF-8" standalone="no"?>
<!-- Created with Inkscape (http://www.inkscape.org/) -->

<svg
   xmlns:dc="http://purl.org/dc/elements/1.1/"
   xmlns:cc="http://creativecommons.org/ns#"
   xmlns:rdf="http://www.w3.org/1999/02/22-rdf-syntax-ns#"
   xmlns:svg="http://www.w3.org/2000/svg"
   xmlns="http://www.w3.org/2000/svg"
   xmlns:xlink="http://www.w3.org/1999/xlink"
   xmlns:sodipodi="http://sodipodi.sourceforge.net/DTD/sodipodi-0.dtd"
   xmlns:inkscape="http://www.inkscape.org/namespaces/inkscape"
   width="100"
   height="100"
   id="svg5778"
   version="1.1"
   inkscape:version="0.48.4 r9939"
   inkscape:export-filename="C:\Users\dan\Desktop\Projects\ballbreaker\ballbreaker\Assets\Images\png\ball.png"
   inkscape:export-xdpi="90"
   inkscape:export-ydpi="90"
   sodipodi:docname="ball.svg">
  <defs
     id="defs5780">
    <linearGradient
       id="linearGradient6332">
      <stop
         style="stop-color:#cdbb00;stop-opacity:0.96428573;"
         offset="0"
         id="stop6334" />
      <stop
         style="stop-color:#cd1e00;stop-opacity:1;"
         offset="1"
         id="stop6336" />
    </linearGradient>
    <linearGradient
       id="linearGradient6320">
      <stop
         style="stop-color:#000000;stop-opacity:1;"
         offset="0"
         id="stop6322" />
      <stop
         style="stop-color:#000000;stop-opacity:0;"
         offset="1"
         id="stop6324" />
    </linearGradient>
    <linearGradient
       id="linearGradient6312">
      <stop
         id="stop6314"
         offset="0"
         style="stop-color:#000000;stop-opacity:0.50458717;" />
      <stop
         id="stop6316"
         offset="1"
         style="stop-color:#000000;stop-opacity:0;" />
    </linearGradient>
    <linearGradient
       id="linearGradient6296">
      <stop
         style="stop-color:#ffffff;stop-opacity:1;"
         offset="0"
         id="stop6298" />
      <stop
         style="stop-color:#ffd000;stop-opacity:0.6339286;"
         offset="1"
         id="stop6300" />
    </linearGradient>
    <radialGradient
       inkscape:collect="always"
       xlink:href="#linearGradient6296"
       id="radialGradient6302"
       cx="337.61908"
       cy="125.21444"
       fx="337.61908"
       fy="125.21444"
       r="94.285713"
       gradientTransform="matrix(2.0909647,-0.01744809,0.00724636,1.1514849,-369.23786,-27.580194)"
       gradientUnits="userSpaceOnUse" />
    <radialGradient
       inkscape:collect="always"
       xlink:href="#linearGradient6296"
       id="radialGradient6306"
       gradientUnits="userSpaceOnUse"
       gradientTransform="matrix(2.0909647,-0.01744809,0.00724636,1.1514849,-369.23786,-27.580194)"
       cx="337.61908"
       cy="125.21444"
       fx="337.61908"
       fy="125.21444"
       r="94.285713" />
    <radialGradient
       inkscape:collect="always"
       xlink:href="#linearGradient6312"
       id="radialGradient6310"
       gradientUnits="userSpaceOnUse"
       gradientTransform="matrix(2.0909084,-0.02483536,0.01734788,1.9366489,-372.49615,-274.98818)"
       cx="336.75302"
       cy="318.15387"
       fx="336.75302"
       fy="318.15387"
       r="94.285713" />
    <radialGradient
       inkscape:collect="always"
       xlink:href="#linearGradient6332"
       id="radialGradient6338"
       cx="52.149124"
       cy="49.239834"
       fx="52.149124"
       fy="49.239834"
       r="28.41054"
       gradientTransform="matrix(0.43991544,-0.0086258,0.0088889,0.45333334,28.770231,27.367603)"
       gradientUnits="userSpaceOnUse" />
  </defs>
  <sodipodi:namedview
     id="base"
     pagecolor="#ffffff"
     bordercolor="#666666"
     borderopacity="1.0"
     inkscape:pageopacity="0.0"
     inkscape:pageshadow="2"
     inkscape:zoom="5.6"
     inkscape:cx="79.372229"
     inkscape:cy="44.874497"
     inkscape:document-units="px"
     inkscape:current-layer="layer1"
     showgrid="false"
     fit-margin-top="0"
     fit-margin-left="0"
     fit-margin-right="0"
     fit-margin-bottom="0"
     inkscape:window-width="1550"
     inkscape:window-height="859"
     inkscape:window-x="1930"
     inkscape:window-y="9"
     inkscape:window-maximized="0" />
  <metadata
     id="metadata5783">
    <rdf:RDF>
      <cc:Work
         rdf:about="">
        <dc:format>image/svg+xml</dc:format>
        <dc:type
           rdf:resource="http://purl.org/dc/dcmitype/StillImage" />
        <dc:title></dc:title>
      </cc:Work>
    </rdf:RDF>
  </metadata>
  <g
     inkscape:label="Layer 1"
     inkscape:groupmode="layer"
     id="layer1"
     transform="translate(5.9109621e-7,-952.36218)">
    <path
       transform="matrix(0.53030304,0,0,0.46052633,-128.43074,900.61644)"
       d="m 431.42857,220.93361 a 94.285713,108.57143 0 1 1 -188.57143,0 94.285713,108.57143 0 1 1 188.57143,0 z"
       sodipodi:ry="108.57143"
       sodipodi:rx="94.285713"
       sodipodi:cy="220.93361"
       sodipodi:cx="337.14285"
       id="path6308"
       style="fill:url(#radialGradient6310);fill-opacity:1;stroke:none"
       sodipodi:type="arc" />
    <path
       sodipodi:type="arc"
       style="fill:url(#radialGradient6338);fill-opacity:1;stroke:none"
       id="path6318"
       sodipodi:cx="52.149124"
       sodipodi:cy="49.239834"
       sodipodi:rx="28.41054"
       sodipodi:ry="28.284271"
       d="m 80.559664,49.239834 a 28.41054,28.284271 0 1 1 -56.821079,0 28.41054,28.284271 0 1 1 56.821079,0 z"
       transform="translate(-2.0203057,952.36218)" />
    <path
       style="fill:none;stroke:#ffe4ff;stroke-width:0.55934066000000005px;stroke-linecap:butt;stroke-linejoin:miter;stroke-opacity:0.46560848"
       d="m 35.89106,992.05 c 0.178091,-0.81972 0.695278,-1.51118 0.582754,-2.51917 0.415498,-1.50933 -0.900665,-2.15151 -1.748264,-2.61667 -1.310181,0.004 -2.024839,-0.87988 -2.808142,-1.50885 -0.8128,-0.22072 -0.944889,-1.3319 -0.68839,-2.18898 0.282245,-0.55854 0.778202,-1.1826 1.554015,-1.54074 0.848945,-0.20854 2.24431,-0.14428 2.719524,0.30815 0.478812,0.29144 0.0024,1.86447 0.928239,1.98139 0.643874,0.1814 0.718116,1.38058 1.305655,1.81914 0.315706,0.7542 1.61498,0.86846 2.715536,0.77148 0.47682,-0.58211 1.633082,-0.9557 1.663152,-2.07131 0.03153,-0.93752 -0.95052,-1.28717 -1.659164,-1.98711 -0.662509,-0.39122 -0.858742,-1.4073 -1.123157,-2.1864 -0.519967,-0.50886 -0.6951,-2.06487 -0.236605,-2.94946 0.657389,-1.01522 2.086872,-0.63082 3.205153,-0.71901 1.036239,0.12888 2.102255,1.25917 1.845392,2.52088 0.09125,1.23125 -0.475323,2.59685 0.378087,3.585 0.276652,0.42319 0.653087,1.29095 1.273053,1.59789 0.894462,0.12721 3.013489,0.74918 2.622397,-0.87568 0.05979,-1.13363 0.116392,-1.81261 -0.388503,-2.71941 -0.148864,-0.77889 -1.053277,-1.33517 -1.262636,-2.05435 -0.313894,-0.5901 -1.223417,-1.88241 -0.777007,-2.97878 0.602979,-0.53256 1.82637,-0.66839 2.816649,-0.71902 0.746716,0.57351 1.635608,0.53024 2.233895,1.33532 0.541685,0.48952 0.592456,1.709 0.874133,2.67065 -0.0731,0.871 0.235544,2.09797 -0.388504,2.56792 -0.300586,0.74241 -0.560934,1.75861 -0.388503,2.67063 0.607786,0.67409 1.845255,0.50022 2.867665,0.6163 0.914605,0.0414 2.093176,0.15868 1.891501,-1.12989 0.743834,-1.45446 0.04245,-2.42544 -0.874132,-3.38965 -0.381519,-0.9586 -0.658381,-3.02891 0.777006,-3.18422 1.125353,-0.16617 2.395123,-0.35527 3.496532,-0.10273 0.812918,0.90508 0.968052,2.12845 1.845392,3.28695 0.151904,0.96516 0.209741,2.28413 -0.09713,3.18423 0.04116,1.27343 -0.744116,1.32006 -1.899675,1.2326 -1.895994,-0.47998 -1.119625,1.8605 -0.431347,2.46521 0.826175,0.87611 1.719871,1.34048 2.963157,1.33532 1.355731,0.37577 1.742318,-0.74802 1.60176,-2.00558 -0.166968,-1.09451 -0.49044,-2.1625 -0.485629,-3.33744 -0.192304,-1.66733 2.252198,-1.17282 3.49675,-1.44647 1.498841,-0.3096 4.111504,-0.61059 3.787689,1.65537 -0.06275,0.99024 0.174865,1.66282 0.09713,2.66892 -0.870743,1.05511 -2.82152,0.90683 -4.176411,1.33531 -0.866535,0.34844 -1.46734,1.11838 -1.955763,2.04888 -0.434023,0.98004 -0.525715,2.22439 -0.472383,3.49782 0.04366,1.08971 1.681248,2.10422 2.525272,1.33533 0.9363,-0.56973 0.719775,-1.65195 1.262635,-2.15706 0.130761,-0.75837 0.653961,-1.44913 1.456889,-1.64346 0.396345,-0.68446 1.730144,-0.65003 2.039641,-0.20544 0.915211,0.41616 0.985349,1.58093 1.359763,2.36249 0.184385,1.31182 -0.903475,2.07201 -1.992003,2.15272 -1.172026,0.23925 -2.014475,0.5042 -2.572913,1.0315 -0.301527,0.50854 -0.837263,1.03968 -1.359761,1.54075 -0.486969,0.57761 -0.387063,1.85661 0.371943,2.06566 0.721287,0.58447 1.975296,0.31477 2.35311,-0.52112 0.34776,-1.02046 1.671751,-1.00798 2.616869,-1.3391 1.649417,-0.91274 2.21622,0.13558 2.913776,0.82175 0.0237,0.78447 0.938118,1.19192 0.679881,2.25984 0.227383,1.082 0.354966,2.51 0,3.595 -0.890502,0.3834 -1.975793,0.4203 -3.010902,0.4108 -1.313357,0.1612 -2.924795,0.4747 -3.787908,-0.8217 -0.753969,-0.3348 -2.028934,-1.167 -2.81665,-0.8218 -0.312672,1.0435 -1.09267,2.9354 0.48563,3.287 0.904369,0.151 1.905296,0.093 2.721157,0.3082 1.060223,-0.2391 1.290663,0.7545 2.038008,1.3352 0.64468,0.6466 1.281918,2.2297 1.262637,3.4942 0.0021,1.5268 0.01565,3.1397 -0.388503,4.5179 -0.718679,0.9464 -1.756585,0.9771 -2.913775,1.2326 -1.028014,0.216 -1.077496,-0.9745 -1.554015,-1.6435 -0.788872,-0.6228 -0.950008,-1.6866 -0.874132,-2.8761 -0.329041,-0.8034 -0.568951,-1.6865 -1.605028,-1.5408 -1.480625,-0.3989 -1.218069,1.2112 -1.891502,2.1571 -0.390663,0.951 -0.108049,2.2014 -0.194253,3.2869 0.706277,0.5165 1.04156,2.1193 1.66565,3.0134 0.189148,1.3074 0.966086,2.5001 0.568245,3.8688 -0.622611,1.2227 -1.987199,2.0828 -2.743166,2.411 -1.41747,0.4439 -2.905269,-1.0804 -2.98726,-2.411 -0.09577,-1.304 -0.192202,-2.474 -1.214073,-3.1843 -0.924096,-1.3866 -2.577914,-0.9986 -3.933598,-0.9245 -0.883914,0.3951 -0.840202,1.5695 -0.874132,2.568 -0.248732,1.1627 0.639586,1.7838 0.971259,2.6706 0.666359,0.9758 0.02518,2.7658 -0.388504,2.9787 -0.47542,0.9946 -1.481495,1.0255 -2.525272,1.0273 -1.101508,0.615 -4.107725,0.8806 -2.719523,-1.3354 0.420779,-1.0412 0.946744,-1.9576 0.777006,-3.2365 0.08147,-1.1407 -0.202456,-1.926 -0.582755,-2.8238 -0.60378,-0.5544 -1.400359,-0.8416 -2.428146,-1.3353 -0.625555,-0.056 -2.057846,-0.766 -2.610069,-0.2011 -0.393145,1.4132 -0.269,3.099 0.376175,4.4124 0.568669,0.7789 1.20194,1.7092 1.165509,2.8273 0.09195,1.0844 -1.564235,0.1923 -2.233895,0.7678 -1.108076,0.1104 -2.254387,-0.031 -3.026076,-0.8763 -0.897969,-0.524 -1.66677,-0.4638 -1.927342,-1.6914 0.275083,-1.4966 2.223715,0.5434 2.726866,-0.5099 0.339573,-1.6647 0.742583,-3.3734 0.769665,-5.0369 -0.241401,-0.5101 -1.181527,-1.5295 -1.65114,-1.9516 -0.922195,-0.2237 -2.316163,-1.5116 -3.593657,-0.8218 -1.362903,0.6998 -0.528228,2.5059 -1.068384,3.6979 -0.05974,0.9859 -2.044524,0.9537 -2.622398,0.6162 -1.057416,-0.2287 -2.031358,-1.3616 -2.525272,-2.4652 -0.921737,-1.0319 -0.477552,-2.6635 -0.582755,-4.0061 0.803014,-0.434 2.132692,-0.3595 3.108027,-0.2053 1.448443,0.3847 2.236679,-0.1653 1.942517,-1.9517 0.266944,-1.1353 0.09851,-2.5973 -0.777007,-3.1842 -1.058643,-0.5639 -2.472968,-1.177 -3.593656,-0.9244 -1.041849,0.1066 -1.435914,1.4346 -2.132893,1.5919 -0.527803,0.7583 -1.795201,0.5017 -2.536551,0.2789 -1.158885,0.1155 -1.599212,-0.9381 -1.449486,-2.0796 0.02763,-1.4722 -0.183213,-3.2282 0.582756,-4.3108 1.052106,-0.5907 2.754809,-1.0708 4.079286,-0.9245 0.55501,0.5566 0.888579,1.7834 1.894771,1.6435 0.922927,0.1766 1.574113,-0.2797 1.596731,-1.2432 0.07744,-0.8395 0.477776,-2.3168 -0.119757,-2.9686 -0.138119,-0.59493 -1.479978,-1.00588 -2.497612,-0.92394 -1.175218,0.31292 -2.526559,0.15326 -3.740164,0.41085 -1.069826,0.014 -1.829507,-0.50949 -1.601758,-1.64353 -0.09021,-1.34597 0.339208,-2.70158 1.748265,-3.08148 0.703399,-0.9373 2.533821,-0.56799 3.108027,0.20543 0.872585,0.53292 1.675522,1.5083 2.915409,1.43804 1.116432,0.27751 1.544736,-0.66529 1.358129,-1.74618 0.13182,-0.94671 -0.632535,-1.71351 -1.262636,-1.84891 -0.926548,-0.42645 -2.046435,-0.47742 -3.010902,-0.82174 -1.142072,-0.576 -2.00009,-0.78464 -1.737782,-2.46331 0.543837,-0.70296 2.154282,-1.00593 3.097544,-0.7209 1.03143,0.34054 1.71903,0.87485 2.708028,1.3675 0.816021,0.49285 1.080376,0.99091 1.856887,1.30313 l 0.388505,0 0.485628,0.20544 0,0 z"
       id="path6342"
       inkscape:connector-curvature="0"
       inkscape:export-filename="C:\Users\dan\Desktop\Projects\ballbreaker\ballbreaker\Assets\Images\png\path6342.png"
       inkscape:export-xdpi="90"
       inkscape:export-ydpi="90" />
    <path
       sodipodi:type="arc"
       style="fill:url(#radialGradient6302);fill-opacity:1;stroke:none"
       id="path5786"
       sodipodi:cx="337.14285"
       sodipodi:cy="220.93361"
       sodipodi:rx="94.285713"
       sodipodi:ry="108.57143"
       d="m 431.42857,220.93361 c 0,59.96234 -42.21316,108.57143 -94.28572,108.57143 -52.07256,0 -94.28571,-48.60909 -94.28571,-108.57143 0,-59.96234 42.21315,-108.57143 94.28571,-108.57143 52.07256,0 94.28572,48.60909 94.28572,108.57143 z"
       transform="matrix(0.53030304,0,0,0.46052633,-128.78788,900.61644)" />
  </g>
</svg>
