<?xml version="1.0" encoding="UTF-8" standalone="no"?>
<!-- Created with Inkscape (http://www.inkscape.org/) -->

<svg
   xmlns:dc="http://purl.org/dc/elements/1.1/"
   xmlns:cc="http://creativecommons.org/ns#"
   xmlns:rdf="http://www.w3.org/1999/02/22-rdf-syntax-ns#"
   xmlns:svg="http://www.w3.org/2000/svg"
   xmlns="http://www.w3.org/2000/svg"
   xmlns:xlink="http://www.w3.org/1999/xlink"
   xmlns:sodipodi="http://sodipodi.sourceforge.net/DTD/sodipodi-0.dtd"
   xmlns:inkscape="http://www.inkscape.org/namespaces/inkscape"
   width="200"
   height="100"
   id="svg2"
   version="1.1"
   inkscape:version="0.48.4 r9939"
   inkscape:export-filename="C:\Users\dan\Desktop\Projects\ballbreaker\ballbreaker\Assets\Images\png\metal_block_snow.png"
   inkscape:export-xdpi="90"
   inkscape:export-ydpi="90"
   sodipodi:docname="metal_block.svg">
  <defs
     id="defs4">
    <linearGradient
       id="linearGradient5561">
      <stop
         style="stop-color:#53d0bd;stop-opacity:0.98214287;"
         offset="0"
         id="stop5563" />
      <stop
         style="stop-color:#c9fffd;stop-opacity:1;"
         offset="1"
         id="stop5565" />
    </linearGradient>
    <linearGradient
       id="linearGradient5544">
      <stop
         id="stop5546"
         offset="0"
         style="stop-color:#000000;stop-opacity:1;" />
      <stop
         id="stop5548"
         offset="1"
         style="stop-color:#000000;stop-opacity:1;" />
    </linearGradient>
    <linearGradient
       id="linearGradient5518">
      <stop
         id="stop5520"
         offset="0"
         style="stop-color:#000000;stop-opacity:1;" />
      <stop
         id="stop5522"
         offset="1"
         style="stop-color:#000000;stop-opacity:0;" />
    </linearGradient>
    <linearGradient
       id="linearGradient5496">
      <stop
         style="stop-color:#ffffff;stop-opacity:0.83035713;"
         offset="0"
         id="stop5498" />
      <stop
         style="stop-color:#ffffff;stop-opacity:0;"
         offset="1"
         id="stop5500" />
    </linearGradient>
    <radialGradient
       inkscape:collect="always"
       xlink:href="#linearGradient5518"
       id="radialGradient5530"
       gradientUnits="userSpaceOnUse"
       gradientTransform="matrix(1.9476569,0,0,0.512381,-141.18944,-86.004242)"
       cx="123.56995"
       cy="-26.06102"
       fx="123.56995"
       fy="-26.06102"
       r="97.583633" />
    <radialGradient
       inkscape:collect="always"
       xlink:href="#linearGradient5496"
       id="radialGradient5532"
       gradientUnits="userSpaceOnUse"
       gradientTransform="matrix(2.5775745,-0.0212394,0.00410263,0.49788455,-212.37063,23.381791)"
       cx="121.61054"
       cy="4.2748632"
       fx="121.61054"
       fy="4.2748632"
       r="97.583633" />
    <linearGradient
       inkscape:collect="always"
       xlink:href="#linearGradient5544"
       id="linearGradient5557"
       gradientUnits="userSpaceOnUse"
       gradientTransform="translate(-0.8928575,3.9285718)"
       x1="104.62759"
       y1="47.682961"
       x2="110.54315"
       y2="-3.5670459" />
    <linearGradient
       inkscape:collect="always"
       xlink:href="#linearGradient5561"
       id="linearGradient5559"
       gradientUnits="userSpaceOnUse"
       x1="99.627594"
       y1="30.897249"
       x2="100.18602"
       y2="0.0043826937"
       gradientTransform="translate(-1.9373635e-8,-1.0714286)" />
    <filter
       inkscape:collect="always"
       id="filter5571"
       x="-0.043739161"
       width="1.0874783"
       y="-0.15095769"
       height="1.3019154">
      <feGaussianBlur
         inkscape:collect="always"
         stdDeviation="3.638835"
         id="feGaussianBlur5573" />
    </filter>
  </defs>
  <sodipodi:namedview
     id="base"
     pagecolor="#ffffff"
     bordercolor="#666666"
     borderopacity="1.0"
     inkscape:pageopacity="0.0"
     inkscape:pageshadow="2"
     inkscape:zoom="2.8"
     inkscape:cx="166.8367"
     inkscape:cy="59.631444"
     inkscape:document-units="px"
     inkscape:current-layer="layer4"
     showgrid="false"
     fit-margin-top="0"
     fit-margin-left="0"
     fit-margin-right="0"
     fit-margin-bottom="0"
     inkscape:window-width="1920"
     inkscape:window-height="1027"
     inkscape:window-x="1912"
     inkscape:window-y="-8"
     inkscape:window-maximized="1" />
  <metadata
     id="metadata7">
    <rdf:RDF>
      <cc:Work
         rdf:about="">
        <dc:format>image/svg+xml</dc:format>
        <dc:type
           rdf:resource="http://purl.org/dc/dcmitype/StillImage" />
        <dc:title></dc:title>
      </cc:Work>
    </rdf:RDF>
  </metadata>
  <g
     inkscape:label="base"
     inkscape:groupmode="layer"
     id="layer1"
     transform="translate(0,-952.36218)"
     sodipodi:insensitive="true">
    <rect
       style="fill:#b2b2b2;fill-opacity:1;fill-rule:evenodd;stroke:none"
       id="rect5512"
       width="200"
       height="100"
       x="0"
       y="952.36218"
       ry="23.832777" />
  </g>
  <g
     inkscape:groupmode="layer"
     id="layer2"
     inkscape:label="shade"
     sodipodi:insensitive="true">
    <rect
       style="fill:url(#radialGradient5530);fill-opacity:1;fill-rule:evenodd;stroke:none"
       id="rect5514"
       width="200"
       height="100"
       x="-5.0481862e-007"
       y="-100"
       ry="23.832777"
       transform="scale(1,-1)" />
  </g>
  <g
     inkscape:groupmode="layer"
     id="layer3"
     inkscape:label="shine"
     sodipodi:insensitive="true">
    <rect
       ry="23.832777"
       y="-1.5017032e-005"
       x="0"
       height="100"
       width="200"
       id="rect5494"
       style="fill:url(#radialGradient5532);fill-opacity:1;fill-rule:evenodd;stroke:none" />
  </g>
  <g
     inkscape:groupmode="layer"
     id="layer4"
     inkscape:label="ice">
    <path
       style="fill:url(#linearGradient5557);fill-opacity:1;stroke:none;filter:url(#filter5571)"
       d="m 4.3610265,47.679609 c 6.7658825,-11.96737 10.3499245,-14.3092 17.9535265,-15.53966 6.255769,-1.01234 10.606582,0.35989 19.909321,8.0397 18.304544,15.11119 19.410464,2.68122 45.019874,21.25073 -0.43521,-5.07323 -2.38096,-23.39631 26.791402,-15.18109 22.48497,-11.09124 14.96505,9.96944 25.65762,9.46793 10.69256,-0.50152 11.00338,-12.40935 25.95524,-3.57245 -1.6043,-11.96534 9.38949,-29.30526 25.92687,-11.07338 5.1088,-3.37526 7.66083,-8.32252 7.89684,-14.28699 0,-0.89296 -3.53458,-14.822854 -10.21259,-18.7518722 -6.67801,-3.929019 -37.46034,-4.82216 -65.75402,-4.107793 -28.293672,0.714367 -99.285791,-1.607428 -104.909379,0.714265 -5.623587,2.321693 -11.4229105,4.10761 -14.2347045,8.2152202 -2.811794,4.10761 -4.719393,8.75102 -4.543656,16.43046 0.175737,7.67945 4.543656,18.39493 4.543656,18.39493 z"
       id="path5534"
       inkscape:connector-curvature="0"
       sodipodi:nodetypes="csscczcccsssssc" />
    <path
       sodipodi:nodetypes="csscczcccsssssc"
       inkscape:connector-curvature="0"
       id="path5550"
       d="M 5.2538838,42.679611 C 12.019766,30.712236 15.603808,28.370413 23.20741,27.139953 29.463179,26.127608 33.813992,27.499841 43.116731,35.179651 61.421274,50.290836 62.527193,37.860865 88.136608,56.430384 87.701396,51.35715 85.755649,33.034071 114.928,41.249291 c 22.48497,-11.091244 14.96505,9.969438 25.65762,9.467924 10.69256,-0.501513 11.00338,-12.40935 25.95524,-3.572444 -1.6043,-11.965343 9.38949,-29.305263 25.92687,-11.073379 5.1088,-3.375259 7.66083,-8.322524 7.89684,-14.286995 0,-0.892959 -3.53458,-14.8228516 -10.21259,-18.7518706 -6.67801,-3.92901803 -37.46034,-4.82216 -65.75402,-4.107793 C 96.104298,-0.36089963 25.112176,-2.6826936 19.488588,-0.36100163 13.865001,1.9606914 8.0656773,3.7466094 5.2538838,7.8542194 2.44209,11.96183 0.53449068,16.605236 0.71022788,24.284682 0.88596488,31.964127 5.2538838,42.679611 5.2538838,42.679611 z"
       style="fill:url(#linearGradient5559);fill-opacity:1;stroke:none" />
  </g>
</svg>
