<?xml version="1.0" encoding="UTF-8" standalone="no"?>
<!-- Created with Inkscape (http://www.inkscape.org/) -->

<svg
   xmlns:dc="http://purl.org/dc/elements/1.1/"
   xmlns:cc="http://creativecommons.org/ns#"
   xmlns:rdf="http://www.w3.org/1999/02/22-rdf-syntax-ns#"
   xmlns:svg="http://www.w3.org/2000/svg"
   xmlns="http://www.w3.org/2000/svg"
   xmlns:xlink="http://www.w3.org/1999/xlink"
   xmlns:sodipodi="http://sodipodi.sourceforge.net/DTD/sodipodi-0.dtd"
   xmlns:inkscape="http://www.inkscape.org/namespaces/inkscape"
   width="64"
   height="64"
   id="svg2"
   version="1.1"
   inkscape:version="0.48.4 r9939"
   sodipodi:docname="app-icon.svg"
   inkscape:export-filename="C:\Users\dan\Desktop\break-em-down\break-em-down\Assets\Images\app-icon.png"
   inkscape:export-xdpi="180"
   inkscape:export-ydpi="180">
  <defs
     id="defs4">
    <linearGradient
       id="linearGradient3902">
      <stop
         style="stop-color:#000000;stop-opacity:1;"
         offset="0"
         id="stop3904" />
      <stop
         style="stop-color:#c6b3b3;stop-opacity:1;"
         offset="1"
         id="stop3906" />
    </linearGradient>
    <linearGradient
       id="linearGradient5156">
      <stop
         id="stop5158"
         offset="0"
         style="stop-color:#ffffff;stop-opacity:1;" />
      <stop
         id="stop5160"
         offset="1"
         style="stop-color:#ffd000;stop-opacity:1;" />
    </linearGradient>
    <linearGradient
       inkscape:collect="always"
       xlink:href="#linearGradient5847"
       id="linearGradient5892"
       gradientUnits="userSpaceOnUse"
       x1="78.791893"
       y1="1081.5801"
       x2="74.612724"
       y2="1004.8085"
       gradientTransform="matrix(-0.12673142,-0.07926318,-0.13291358,0.21251137,159.14382,822.08629)" />
    <linearGradient
       inkscape:collect="always"
       id="linearGradient5847">
      <stop
         style="stop-color:#000000;stop-opacity:1;"
         offset="0"
         id="stop5849" />
      <stop
         style="stop-color:#000000;stop-opacity:0;"
         offset="1"
         id="stop5851" />
    </linearGradient>
    <radialGradient
       inkscape:collect="always"
       xlink:href="#linearGradient5827"
       id="radialGradient5890"
       gradientUnits="userSpaceOnUse"
       gradientTransform="matrix(-0.12673142,-0.07926318,-0.11376548,0.18189608,139.88588,852.87722)"
       cx="186.9371"
       cy="1007.8022"
       fx="186.9371"
       fy="1007.8022"
       r="10.402095" />
    <linearGradient
       id="linearGradient5827">
      <stop
         style="stop-color:#ffffff;stop-opacity:1;"
         offset="0"
         id="stop5829" />
      <stop
         style="stop-color:#ffffff;stop-opacity:0;"
         offset="1"
         id="stop5831" />
    </linearGradient>
    <radialGradient
       inkscape:collect="always"
       xlink:href="#linearGradient5827"
       id="radialGradient5888"
       gradientUnits="userSpaceOnUse"
       gradientTransform="matrix(-0.12673142,-0.07926318,-0.09743262,0.15578197,123.52269,879.0398)"
       cx="135.43362"
       cy="1008.0847"
       fx="135.43362"
       fy="1008.0847"
       r="9.3695955" />
    <linearGradient
       id="linearGradient3466">
      <stop
         style="stop-color:#ffffff;stop-opacity:1;"
         offset="0"
         id="stop3468" />
      <stop
         style="stop-color:#ffffff;stop-opacity:0;"
         offset="1"
         id="stop3470" />
    </linearGradient>
    <linearGradient
       inkscape:collect="always"
       xlink:href="#linearGradient5805"
       id="linearGradient5886"
       gradientUnits="userSpaceOnUse"
       x1="107.33379"
       y1="1059.6093"
       x2="106.93253"
       y2="962.88721"
       gradientTransform="matrix(-0.12673142,-0.07926318,-0.13291357,0.21251136,159.14383,822.08628)" />
    <linearGradient
       id="linearGradient5805">
      <stop
         style="stop-color:#ff9b5e;stop-opacity:1;"
         offset="0"
         id="stop5807" />
      <stop
         style="stop-color:#d8c786;stop-opacity:1;"
         offset="1"
         id="stop5809" />
    </linearGradient>
    <linearGradient
       gradientTransform="matrix(0.12673142,0.07926318,-0.13291358,0.21251137,156.45033,820.40167)"
       inkscape:collect="always"
       xlink:href="#linearGradient5847"
       id="linearGradient5853"
       x1="78.791893"
       y1="1081.5801"
       x2="74.612724"
       y2="1004.8085"
       gradientUnits="userSpaceOnUse" />
    <radialGradient
       inkscape:collect="always"
       xlink:href="#linearGradient5827"
       id="radialGradient5835"
       cx="186.9371"
       cy="1007.8022"
       fx="186.9371"
       fy="1007.8022"
       r="10.402095"
       gradientTransform="matrix(0.12673142,0.07926318,-0.11376548,0.18189608,137.19238,851.19259)"
       gradientUnits="userSpaceOnUse" />
    <linearGradient
       id="linearGradient3484">
      <stop
         style="stop-color:#ffffff;stop-opacity:1;"
         offset="0"
         id="stop3486" />
      <stop
         style="stop-color:#ffffff;stop-opacity:0;"
         offset="1"
         id="stop3488" />
    </linearGradient>
    <radialGradient
       inkscape:collect="always"
       xlink:href="#linearGradient5827"
       id="radialGradient5833"
       cx="135.43362"
       cy="1008.0847"
       fx="135.43362"
       fy="1008.0847"
       r="9.3695955"
       gradientTransform="matrix(0.12673142,0.07926318,-0.09743262,0.15578197,120.8292,877.35518)"
       gradientUnits="userSpaceOnUse" />
    <linearGradient
       id="linearGradient3491">
      <stop
         style="stop-color:#ffffff;stop-opacity:1;"
         offset="0"
         id="stop3493" />
      <stop
         style="stop-color:#ffffff;stop-opacity:0;"
         offset="1"
         id="stop3495" />
    </linearGradient>
    <linearGradient
       inkscape:collect="always"
       xlink:href="#linearGradient5805"
       id="linearGradient5811"
       x1="107.33379"
       y1="1059.6093"
       x2="106.93253"
       y2="962.88721"
       gradientUnits="userSpaceOnUse" />
    <linearGradient
       id="linearGradient3498">
      <stop
         style="stop-color:#ff9b5e;stop-opacity:1;"
         offset="0"
         id="stop3500" />
      <stop
         style="stop-color:#d8c786;stop-opacity:1;"
         offset="1"
         id="stop3502" />
    </linearGradient>
    <linearGradient
       gradientTransform="matrix(0.12673142,0.07926318,-0.13291357,0.21251136,156.45034,820.40165)"
       y2="962.88721"
       x2="106.93253"
       y1="1059.6093"
       x1="107.33379"
       gradientUnits="userSpaceOnUse"
       id="linearGradient3516"
       xlink:href="#linearGradient5805"
       inkscape:collect="always" />
    <filter
       inkscape:collect="always"
       id="filter4759"
       x="-0.17332883"
       width="1.3466577"
       y="-0.34319683"
       height="1.6863937">
      <feGaussianBlur
         inkscape:collect="always"
         stdDeviation="2.3664792"
         id="feGaussianBlur4761" />
    </filter>
    <filter
       inkscape:collect="always"
       id="filter4763"
       x="-1.9285288"
       width="4.8570575"
       y="-2.1186728"
       height="5.2373455">
      <feGaussianBlur
         inkscape:collect="always"
         stdDeviation="2.3664792"
         id="feGaussianBlur4765" />
    </filter>
    <filter
       inkscape:collect="always"
       id="filter4767"
       x="-1.3462388"
       width="3.6924776"
       y="-2.0403236"
       height="5.0806473">
      <feGaussianBlur
         inkscape:collect="always"
         stdDeviation="2.3664792"
         id="feGaussianBlur4769" />
    </filter>
    <filter
       inkscape:collect="always"
       id="filter4771"
       x="-1.9285315"
       width="4.857063"
       y="-2.1186727"
       height="5.2373454">
      <feGaussianBlur
         inkscape:collect="always"
         stdDeviation="2.3664792"
         id="feGaussianBlur4773" />
    </filter>
    <filter
       inkscape:collect="always"
       id="filter4775"
       x="-1.3462265"
       width="3.6924531"
       y="-2.0403531"
       height="5.0807061">
      <feGaussianBlur
         inkscape:collect="always"
         stdDeviation="2.3664792"
         id="feGaussianBlur4777" />
    </filter>
    <filter
       inkscape:collect="always"
       id="filter4779"
       x="-0.17332883"
       width="1.3466577"
       y="-0.34319821"
       height="1.6863964">
      <feGaussianBlur
         inkscape:collect="always"
         stdDeviation="2.3664792"
         id="feGaussianBlur4781" />
    </filter>
    <filter
       inkscape:collect="always"
       id="filter4783"
       x="-0.25455573"
       width="1.5091115"
       y="-0.19550477"
       height="1.3910095">
      <feGaussianBlur
         inkscape:collect="always"
         stdDeviation="2.3664792"
         id="feGaussianBlur4785" />
    </filter>
    <filter
       inkscape:collect="always"
       id="filter4787"
       x="-2.1732563"
       width="5.3465126"
       y="-1.6205987"
       height="4.2411974">
      <feGaussianBlur
         inkscape:collect="always"
         stdDeviation="2.3664792"
         id="feGaussianBlur4789" />
    </filter>
    <filter
       inkscape:collect="always"
       id="filter4791"
       x="-3.2510204"
       width="7.5020407"
       y="-1.1572026"
       height="3.3144051">
      <feGaussianBlur
         inkscape:collect="always"
         stdDeviation="2.3664792"
         id="feGaussianBlur4793" />
    </filter>
    <filter
       inkscape:collect="always"
       id="filter4795"
       x="-2.1732311"
       width="5.3464621"
       y="-1.6205987"
       height="4.2411974">
      <feGaussianBlur
         inkscape:collect="always"
         stdDeviation="2.3664792"
         id="feGaussianBlur4797" />
    </filter>
    <filter
       inkscape:collect="always"
       id="filter4799"
       x="-3.2510204"
       width="7.5020409"
       y="-1.157179"
       height="3.314358">
      <feGaussianBlur
         inkscape:collect="always"
         stdDeviation="2.3664792"
         id="feGaussianBlur4801" />
    </filter>
    <filter
       inkscape:collect="always"
       id="filter4803"
       x="-0.25455624"
       width="1.5091125"
       y="-0.19550477"
       height="1.3910095">
      <feGaussianBlur
         inkscape:collect="always"
         stdDeviation="2.3664792"
         id="feGaussianBlur4805" />
    </filter>
    <radialGradient
       inkscape:collect="always"
       xlink:href="#linearGradient6312"
       id="radialGradient6310"
       gradientUnits="userSpaceOnUse"
       gradientTransform="matrix(2.0909084,-0.02483536,0.01734788,1.9366489,-372.49615,-274.98818)"
       cx="336.75302"
       cy="318.15387"
       fx="336.75302"
       fy="318.15387"
       r="94.285713" />
    <linearGradient
       id="linearGradient6312">
      <stop
         id="stop6314"
         offset="0"
         style="stop-color:#000000;stop-opacity:0.50458717;" />
      <stop
         id="stop6316"
         offset="1"
         style="stop-color:#000000;stop-opacity:0;" />
    </linearGradient>
    <radialGradient
       inkscape:collect="always"
       xlink:href="#linearGradient6332"
       id="radialGradient6338"
       cx="52.149124"
       cy="49.239834"
       fx="52.149124"
       fy="49.239834"
       r="28.41054"
       gradientTransform="matrix(0.43991544,-0.0086258,0.0088889,0.45333334,28.770231,27.367603)"
       gradientUnits="userSpaceOnUse" />
    <linearGradient
       id="linearGradient6332">
      <stop
         style="stop-color:#cdbb00;stop-opacity:0.96428573;"
         offset="0"
         id="stop6334" />
      <stop
         style="stop-color:#cd1e00;stop-opacity:1;"
         offset="1"
         id="stop6336" />
    </linearGradient>
    <radialGradient
       inkscape:collect="always"
       xlink:href="#linearGradient6296"
       id="radialGradient6302"
       cx="337.61908"
       cy="125.21444"
       fx="337.61908"
       fy="125.21444"
       r="94.285713"
       gradientTransform="matrix(2.0909647,-0.01744809,0.00724636,1.1514849,-369.23786,-27.580194)"
       gradientUnits="userSpaceOnUse" />
    <linearGradient
       id="linearGradient6296">
      <stop
         style="stop-color:#ffffff;stop-opacity:1;"
         offset="0"
         id="stop6298" />
      <stop
         style="stop-color:#ffd000;stop-opacity:0.6339286;"
         offset="1"
         id="stop6300" />
    </linearGradient>
    <radialGradient
       r="94.285713"
       fy="318.15387"
       fx="336.75302"
       cy="318.15387"
       cx="336.75302"
       gradientTransform="matrix(2.0909084,-0.02483536,0.01734788,1.9366489,-372.49615,-274.98818)"
       gradientUnits="userSpaceOnUse"
       id="radialGradient4897"
       xlink:href="#linearGradient6312"
       inkscape:collect="always" />
    <filter
       inkscape:collect="always"
       id="filter4968"
       x="-0.42182489"
       width="1.8436498"
       y="-0.42339542"
       height="1.8467908">
      <feGaussianBlur
         inkscape:collect="always"
         stdDeviation="2.0802034"
         id="feGaussianBlur4970" />
    </filter>
    <linearGradient
       inkscape:collect="always"
       xlink:href="#linearGradient5805"
       id="linearGradient5065"
       gradientUnits="userSpaceOnUse"
       gradientTransform="matrix(0.12673142,0.07926318,-0.13291357,0.21251136,156.45034,820.40165)"
       x1="107.33379"
       y1="1059.6093"
       x2="106.93253"
       y2="962.88721" />
    <radialGradient
       inkscape:collect="always"
       xlink:href="#linearGradient5827"
       id="radialGradient5067"
       gradientUnits="userSpaceOnUse"
       gradientTransform="matrix(0.12673142,0.07926318,-0.09743262,0.15578197,120.8292,877.35518)"
       cx="135.43362"
       cy="1008.0847"
       fx="135.43362"
       fy="1008.0847"
       r="9.3695955" />
    <radialGradient
       inkscape:collect="always"
       xlink:href="#linearGradient5827"
       id="radialGradient5069"
       gradientUnits="userSpaceOnUse"
       gradientTransform="matrix(0.12673142,0.07926318,-0.11376548,0.18189608,137.19238,851.19259)"
       cx="186.9371"
       cy="1007.8022"
       fx="186.9371"
       fy="1007.8022"
       r="10.402095" />
    <linearGradient
       inkscape:collect="always"
       xlink:href="#linearGradient5847"
       id="linearGradient5071"
       gradientUnits="userSpaceOnUse"
       gradientTransform="matrix(0.12673142,0.07926318,-0.13291358,0.21251137,156.45033,820.40167)"
       x1="78.791893"
       y1="1081.5801"
       x2="74.612724"
       y2="1004.8085" />
    <linearGradient
       inkscape:collect="always"
       xlink:href="#linearGradient5805"
       id="linearGradient5073"
       gradientUnits="userSpaceOnUse"
       gradientTransform="matrix(-0.12673142,-0.07926318,-0.13291357,0.21251136,159.14383,822.08628)"
       x1="107.33379"
       y1="1059.6093"
       x2="106.93253"
       y2="962.88721" />
    <radialGradient
       inkscape:collect="always"
       xlink:href="#linearGradient5827"
       id="radialGradient5075"
       gradientUnits="userSpaceOnUse"
       gradientTransform="matrix(-0.12673142,-0.07926318,-0.09743262,0.15578197,123.52269,879.0398)"
       cx="135.43362"
       cy="1008.0847"
       fx="135.43362"
       fy="1008.0847"
       r="9.3695955" />
    <radialGradient
       inkscape:collect="always"
       xlink:href="#linearGradient5827"
       id="radialGradient5077"
       gradientUnits="userSpaceOnUse"
       gradientTransform="matrix(-0.12673142,-0.07926318,-0.11376548,0.18189608,139.88588,852.87722)"
       cx="186.9371"
       cy="1007.8022"
       fx="186.9371"
       fy="1007.8022"
       r="10.402095" />
    <linearGradient
       inkscape:collect="always"
       xlink:href="#linearGradient5847"
       id="linearGradient5079"
       gradientUnits="userSpaceOnUse"
       gradientTransform="matrix(-0.12673142,-0.07926318,-0.13291358,0.21251137,159.14382,822.08629)"
       x1="78.791893"
       y1="1081.5801"
       x2="74.612724"
       y2="1004.8085" />
    <linearGradient
       inkscape:collect="always"
       xlink:href="#linearGradient5805"
       id="linearGradient5107"
       gradientUnits="userSpaceOnUse"
       gradientTransform="matrix(0.12673142,0.07926318,-0.13291357,0.21251136,156.45034,820.40165)"
       x1="107.33379"
       y1="1059.6093"
       x2="106.93253"
       y2="962.88721" />
    <radialGradient
       inkscape:collect="always"
       xlink:href="#linearGradient5827"
       id="radialGradient5109"
       gradientUnits="userSpaceOnUse"
       gradientTransform="matrix(0.12673142,0.07926318,-0.09743262,0.15578197,120.8292,877.35518)"
       cx="135.43362"
       cy="1008.0847"
       fx="135.43362"
       fy="1008.0847"
       r="9.3695955" />
    <radialGradient
       inkscape:collect="always"
       xlink:href="#linearGradient5827"
       id="radialGradient5111"
       gradientUnits="userSpaceOnUse"
       gradientTransform="matrix(0.12673142,0.07926318,-0.11376548,0.18189608,137.19238,851.19259)"
       cx="186.9371"
       cy="1007.8022"
       fx="186.9371"
       fy="1007.8022"
       r="10.402095" />
    <linearGradient
       inkscape:collect="always"
       xlink:href="#linearGradient5847"
       id="linearGradient5113"
       gradientUnits="userSpaceOnUse"
       gradientTransform="matrix(0.12673142,0.07926318,-0.13291358,0.21251137,156.45033,820.40167)"
       x1="78.791893"
       y1="1081.5801"
       x2="74.612724"
       y2="1004.8085" />
    <linearGradient
       inkscape:collect="always"
       xlink:href="#linearGradient5805"
       id="linearGradient5115"
       gradientUnits="userSpaceOnUse"
       gradientTransform="matrix(-0.12673142,-0.07926318,-0.13291357,0.21251136,159.14383,822.08628)"
       x1="107.33379"
       y1="1059.6093"
       x2="106.93253"
       y2="962.88721" />
    <radialGradient
       inkscape:collect="always"
       xlink:href="#linearGradient5827"
       id="radialGradient5117"
       gradientUnits="userSpaceOnUse"
       gradientTransform="matrix(-0.12673142,-0.07926318,-0.09743262,0.15578197,123.52269,879.0398)"
       cx="135.43362"
       cy="1008.0847"
       fx="135.43362"
       fy="1008.0847"
       r="9.3695955" />
    <radialGradient
       inkscape:collect="always"
       xlink:href="#linearGradient5827"
       id="radialGradient5119"
       gradientUnits="userSpaceOnUse"
       gradientTransform="matrix(-0.12673142,-0.07926318,-0.11376548,0.18189608,139.88588,852.87722)"
       cx="186.9371"
       cy="1007.8022"
       fx="186.9371"
       fy="1007.8022"
       r="10.402095" />
    <linearGradient
       inkscape:collect="always"
       xlink:href="#linearGradient5847"
       id="linearGradient5121"
       gradientUnits="userSpaceOnUse"
       gradientTransform="matrix(-0.12673142,-0.07926318,-0.13291358,0.21251137,159.14382,822.08629)"
       x1="78.791893"
       y1="1081.5801"
       x2="74.612724"
       y2="1004.8085" />
    <radialGradient
       inkscape:collect="always"
       xlink:href="#linearGradient6312"
       id="radialGradient5123"
       gradientUnits="userSpaceOnUse"
       gradientTransform="matrix(2.0909084,-0.02483536,0.01734788,1.9366489,-372.49615,-274.98818)"
       cx="336.75302"
       cy="318.15387"
       fx="336.75302"
       fy="318.15387"
       r="94.285713" />
    <radialGradient
       inkscape:collect="always"
       xlink:href="#linearGradient6332"
       id="radialGradient5125"
       gradientUnits="userSpaceOnUse"
       gradientTransform="matrix(0.43991544,-0.0086258,0.0088889,0.45333334,28.770231,27.367603)"
       cx="52.149124"
       cy="49.239834"
       fx="52.149124"
       fy="49.239834"
       r="28.41054" />
    <radialGradient
       inkscape:collect="always"
       xlink:href="#linearGradient6296"
       id="radialGradient5127"
       gradientUnits="userSpaceOnUse"
       gradientTransform="matrix(2.0909647,-0.01744809,0.00724636,1.1514849,-369.23786,-27.580194)"
       cx="337.61908"
       cy="125.21444"
       fx="337.61908"
       fy="125.21444"
       r="94.285713" />
    <radialGradient
       inkscape:collect="always"
       xlink:href="#linearGradient6312"
       id="radialGradient5144"
       gradientUnits="userSpaceOnUse"
       gradientTransform="matrix(2.0909084,-0.02483536,0.01734788,1.9366489,-372.49615,-274.98818)"
       cx="336.75302"
       cy="318.15387"
       fx="336.75302"
       fy="318.15387"
       r="94.285713" />
    <radialGradient
       inkscape:collect="always"
       xlink:href="#linearGradient6332"
       id="radialGradient5146"
       gradientUnits="userSpaceOnUse"
       gradientTransform="matrix(0.43991544,-0.0086258,0.0088889,0.45333334,28.770231,27.367603)"
       cx="52.149124"
       cy="49.239834"
       fx="52.149124"
       fy="49.239834"
       r="28.41054" />
    <radialGradient
       inkscape:collect="always"
       xlink:href="#linearGradient6296"
       id="radialGradient5148"
       gradientUnits="userSpaceOnUse"
       gradientTransform="matrix(2.0909647,-0.01744809,0.00724636,1.1514849,-369.23786,-27.580194)"
       cx="337.61908"
       cy="125.21444"
       fx="337.61908"
       fy="125.21444"
       r="94.285713" />
    <radialGradient
       inkscape:collect="always"
       xlink:href="#linearGradient5156"
       id="radialGradient5162"
       gradientUnits="userSpaceOnUse"
       gradientTransform="matrix(2.0909647,-0.01744809,0.00724636,1.1514849,-369.23786,-27.580194)"
       cx="337.61908"
       cy="125.21444"
       fx="337.61908"
       fy="125.21444"
       r="94.285713" />
    <filter
       inkscape:collect="always"
       id="filter5231"
       x="-0.017870138"
       width="1.0357403"
       y="-0.1261096"
       height="1.2522192">
      <feGaussianBlur
         inkscape:collect="always"
         stdDeviation="0.41465479"
         id="feGaussianBlur5233" />
    </filter>
    <filter
       inkscape:collect="always"
       id="filter5263"
       x="-0.03805298"
       width="1.076106"
       y="-0.11669519"
       height="1.2333904">
      <feGaussianBlur
         inkscape:collect="always"
         stdDeviation="0.81459638"
         id="feGaussianBlur5265" />
    </filter>
    <filter
       inkscape:collect="always"
       id="filter3952"
       x="-0.064678169"
       width="1.1293563"
       y="-0.13254385"
       height="1.2650877">
      <feGaussianBlur
         inkscape:collect="always"
         stdDeviation="0.74124563"
         id="feGaussianBlur3954" />
    </filter>
    <linearGradient
       inkscape:collect="always"
       xlink:href="#linearGradient3902"
       id="linearGradient3908"
       x1="7.1785712"
       y1="62.214287"
       x2="63"
       y2="-6.1785698"
       gradientUnits="userSpaceOnUse"
       gradientTransform="matrix(0.98547489,0,0,0.98547489,0.53571429,988.75911)" />
  </defs>
  <sodipodi:namedview
     id="base"
     pagecolor="#ffffff"
     bordercolor="#666666"
     borderopacity="1.0"
     inkscape:pageopacity="0.0"
     inkscape:pageshadow="2"
     inkscape:zoom="5.6"
     inkscape:cx="9.0476301"
     inkscape:cy="20.073229"
     inkscape:document-units="px"
     inkscape:current-layer="layer1"
     showgrid="false"
     inkscape:window-width="1137"
     inkscape:window-height="919"
     inkscape:window-x="492"
     inkscape:window-y="65"
     inkscape:window-maximized="0" />
  <metadata
     id="metadata7">
    <rdf:RDF>
      <cc:Work
         rdf:about="">
        <dc:format>image/svg+xml</dc:format>
        <dc:type
           rdf:resource="http://purl.org/dc/dcmitype/StillImage" />
        <dc:title></dc:title>
      </cc:Work>
    </rdf:RDF>
  </metadata>
  <g
     inkscape:label="Layer 1"
     inkscape:groupmode="layer"
     id="layer1"
     transform="translate(0,-988.36218)">
    <rect
       style="fill:#8dd3fc;fill-opacity:1;stroke:url(#linearGradient3908);stroke-width:1;stroke-opacity:1"
       id="rect3132"
       width="63"
       height="63"
       x="0.53571427"
       y="989.00549"
       ry="14.196873" />
    <g
       id="g4807"
       transform="translate(3.5714286,-3.5714286)">
      <path
         style="fill:#000000;fill-opacity:1;stroke:#000000;stroke-width:0.25542405px;stroke-linecap:butt;stroke-linejoin:miter;stroke-opacity:1;filter:url(#filter4759)"
         d="m 15.843155,1046.5667 c 0,0 6.986852,-10.6715 8.493901,-11.0827 1.507049,-0.4113 5.318005,-0.5095 6.414441,0.4019 1.879618,1.3604 4.686475,5.7658 6.993978,5.8034 1.232956,-0.056 2.601082,-0.3286 3.1807,0.4099 0.579675,0.7385 0.575981,2.9925 -0.544621,3.1189 -1.120602,0.1264 -4.130988,1.0263 -5.448426,0.052 -1.31738,-0.9745 -5.397643,-3.5264 -5.397643,-3.5264 0,0 2.838863,2.4653 3.246977,2.6454 0.408273,0.1799 2.087025,1.8606 3.477576,1.8704 1.351189,0.01 4.515079,0.8519 5.809041,0.3212 1.398139,-0.5736 4.685879,-1.0615 5.434551,-0.5932 0.748672,0.4682 1.585478,2.0445 0.775205,2.5907 -0.810221,0.546 -2.951234,1.3881 -3.768764,1.7793 -0.817478,0.3911 -6.428893,1.6195 -8.695419,1.33 -1.883631,-0.2406 -6.675293,-3.6485 -8.022903,-4.4914 -1.347609,-0.8428 -3.011556,-3.0117 -4.025907,-1.3899 -1.014351,1.6218 -2.374055,3.6293 -2.273815,4.2184 0.100245,0.5891 -5.648978,-3.4576 -5.648978,-3.4576 z"
         id="path3631"
         inkscape:connector-curvature="0"
         sodipodi:nodetypes="csccssscssssssssssc" />
      <path
         style="fill:#000000;fill-opacity:1;stroke:#000000;stroke-width:0.25542405px;stroke-linecap:butt;stroke-linejoin:miter;stroke-opacity:1;filter:url(#filter4763)"
         d="m 41.19062,1043.0919 c 0,0 -1.235311,-0.7726 -2.289447,0 -1.054242,0.7697 -0.472217,2.337 -0.472217,2.337 0,0 2.218235,0.034 2.552787,-0.5845 0.334412,-0.618 0.208877,-1.7494 0.208877,-1.7494 z"
         id="path3633"
         inkscape:connector-curvature="0" />
      <path
         style="fill:#000000;fill-opacity:1;stroke:#000000;stroke-width:0.25542405px;stroke-linecap:butt;stroke-linejoin:miter;stroke-opacity:1;filter:url(#filter4767)"
         d="m 48.555264,1047.6245 c 0,0 -1.400704,-0.425 -3.001933,0.3034 -1.601229,0.7284 -1.161679,2.357 -1.161679,2.357 l 4.057372,-1.8245 z"
         id="path3635"
         inkscape:connector-curvature="0" />
      <path
         inkscape:connector-curvature="0"
         id="path3637"
         d="m 41.19062,1043.0919 c 0,0 -1.235311,-0.7726 -2.289447,0 -1.054242,0.7697 -0.472217,2.337 -0.472217,2.337 0,0 2.218235,0.034 2.552734,-0.5844 0.334465,-0.6181 0.20893,-1.7495 0.20893,-1.7495 z"
         style="fill:#000000;fill-opacity:1;stroke:none;filter:url(#filter4771)" />
      <path
         inkscape:connector-curvature="0"
         id="path3639"
         d="m 48.555264,1047.6245 c 0,0 -1.400757,-0.4249 -3.001933,0.3034 -1.601229,0.7284 -1.161733,2.357 -1.161733,2.357 l 4.057426,-1.8245 z"
         style="fill:#000000;fill-opacity:1;stroke:none;filter:url(#filter4775)" />
      <path
         sodipodi:nodetypes="csccssscssssssssssc"
         inkscape:connector-curvature="0"
         id="path3641"
         d="m 15.843155,1046.5667 c 0,0 6.986799,-10.6714 8.493848,-11.0826 1.507048,-0.4113 5.318005,-0.5095 6.414494,0.4018 1.879564,1.3605 4.686475,5.7658 6.993978,5.8034 1.232956,-0.056 2.601029,-0.3285 3.1807,0.4099 0.579622,0.7386 0.575981,2.9925 -0.544621,3.1189 -1.120602,0.1264 -4.130988,1.0263 -5.448427,0.052 -1.317379,-0.9745 -5.397642,-3.5264 -5.397642,-3.5264 0,0 2.83881,2.4654 3.246977,2.6454 0.408273,0.1799 2.086972,1.8607 3.477575,1.8704 1.35119,0.01 4.51508,0.8519 5.809042,0.3212 1.398086,-0.5735 4.685879,-1.0615 5.434551,-0.5932 0.748672,0.4682 1.585478,2.0445 0.775205,2.5907 -0.810221,0.546 -2.951287,1.3882 -3.768764,1.7793 -0.817478,0.3911 -6.428947,1.6196 -8.695419,1.33 -1.883632,-0.2406 -6.675347,-3.6484 -8.022956,-4.4913 -1.347609,-0.8428 -3.011503,-3.0118 -4.025907,-1.3899 -1.014298,1.6217 -2.374002,3.6292 -2.273762,4.2183 0.100245,0.5891 -5.648978,-3.4576 -5.648978,-3.4576 z"
         style="fill:#000000;fill-opacity:1;stroke:none;filter:url(#filter4779)" />
      <path
         sodipodi:nodetypes="csccssscssssssssssc"
         inkscape:connector-curvature="0"
         id="path3643"
         d="m 17.320478,1047.4907 c 0,0 6.537647,-10.9525 6.247883,-12.4875 -0.289764,-1.535 -1.869246,-5.0047 -3.16856,-5.5917 -2.045805,-1.0947 -7.235264,-1.6906 -8.278928,-3.7489 -0.48899,-1.1332 -0.842815,-2.4826 -1.760536,-2.6806 -0.9176667,-0.198 -2.9427787,0.7918 -2.5660367,1.8547 0.37674,1.0629 0.88511,4.1635 2.3377627,4.9217 1.452707,0.758 5.532969,3.31 5.532969,3.31 0,0 -3.459065,-1.4737 -3.799622,-1.7618 -0.3404,-0.2884 -2.5863267,-1.0623 -3.2036397,-2.3084 -0.599902,-1.2107 -2.741967,-3.6869 -2.831053,-5.0826 -0.09612,-1.5082 -1.096281,-4.6779 -1.844953,-5.1461 -0.748671,-0.4683 -2.532219,-0.5308 -2.668685,0.4367 -0.136416,0.9675 0.04345,3.2611 0.04946,4.1674 0.0061,0.9062 1.357297,6.4893 2.609527,8.4006 1.04061,1.5884 6.2018677,4.4054 7.5494777,5.2483 1.34761,0.8428 4.02596,1.3898 3.01161,3.0116 -1.014351,1.6218 -2.224328,3.7229 -2.797886,3.8906 -0.573561,0.1677 5.581102,3.5661 5.581102,3.5661 z"
         style="fill:#000000;fill-opacity:1;stroke:#000000;stroke-width:0.25542405px;stroke-linecap:butt;stroke-linejoin:miter;stroke-opacity:1;filter:url(#filter4783)" />
      <path
         inkscape:connector-curvature="0"
         id="path3645"
         d="m 9.3520353,1023.1787 c 0,0 1.2353097,0.7726 1.0047117,2.0572 -0.230704,1.2848 -1.8946917,1.4474 -1.8946917,1.4474 0,0 -1.001057,-1.9798 -0.59164,-2.5512 0.409309,-0.5711 1.48162,-0.9534 1.48162,-0.9534 z"
         style="fill:#000000;fill-opacity:1;stroke:#000000;stroke-width:0.25542405px;stroke-linecap:butt;stroke-linejoin:miter;stroke-opacity:1;filter:url(#filter4787)" />
      <path
         inkscape:connector-curvature="0"
         id="path3647"
         d="m 2.0535673,1018.5403 c 0,0 0.995048,1.0735 1.040895,2.832 0.04585,1.7585 -1.610884,2.076 -1.610884,2.076 l -0.135187,-4.4466 z"
         style="fill:#000000;fill-opacity:1;stroke:#000000;stroke-width:0.25542405px;stroke-linecap:butt;stroke-linejoin:miter;stroke-opacity:1;filter:url(#filter4791)" />
      <path
         style="fill:#000000;fill-opacity:1;stroke:none;filter:url(#filter4795)"
         d="m 9.3520353,1023.1787 c 0,0 1.2353097,0.7726 1.0047117,2.0572 -0.230704,1.2848 -1.8946917,1.4474 -1.8946917,1.4474 0,0 -1.001057,-1.9798 -0.591693,-2.5511 0.409362,-0.5712 1.481673,-0.9535 1.481673,-0.9535 z"
         id="path3649"
         inkscape:connector-curvature="0" />
      <path
         style="fill:#000000;fill-opacity:1;stroke:none;filter:url(#filter4799)"
         d="m 2.0535673,1018.5403 c 0,0 0.994995,1.0736 1.040895,2.832 0.04585,1.7585 -1.610937,2.0761 -1.610937,2.0761 l -0.135134,-4.4467 z"
         id="path3651"
         inkscape:connector-curvature="0" />
      <path
         style="fill:#000000;fill-opacity:1;stroke:none;filter:url(#filter4803)"
         d="m 17.320477,1047.4907 c 0,0 6.537595,-10.9524 6.247831,-12.4874 -0.289764,-1.535 -1.869246,-5.0047 -3.168507,-5.5918 -2.045858,-1.0946 -7.235264,-1.6906 -8.278929,-3.7489 -0.488989,-1.1332 -0.842867,-2.4825 -1.760535,-2.6806 -0.9177207,-0.1979 -2.9427787,0.7918 -2.5660377,1.8547 0.376741,1.0629 0.885111,4.1635 2.3377637,4.9217 1.452707,0.758 5.532969,3.31 5.532969,3.31 0,0 -3.459118,-1.4736 -3.799622,-1.7618 -0.3404,-0.2884 -2.5863797,-1.0622 -3.2036397,-2.3084 -0.599902,-1.2107 -2.741967,-3.6869 -2.831053,-5.0826 -0.09617,-1.5081 -1.096281,-4.6779 -1.844953,-5.1461 -0.748671,-0.4683 -2.532219,-0.5308 -2.668685,0.4367 -0.136416,0.9675 0.0434,3.2612 0.04946,4.1674 0.0061,0.9062 1.357244,6.4894 2.609527,8.4006 1.04061,1.5884 6.2018147,4.4055 7.5494247,5.2483 1.347609,0.8429 4.026013,1.3898 3.01161,3.0117 -1.014298,1.6217 -2.224275,3.7228 -2.797833,3.8905 -0.573561,0.1677 5.581102,3.5661 5.581102,3.5661 z"
         id="path3653"
         inkscape:connector-curvature="0"
         sodipodi:nodetypes="csccssscssssssssssc" />
    </g>
    <path
       transform="matrix(0.14510805,0,0,0.12599584,-8.8893512,982.26429)"
       d="m 431.42857,220.93361 c 0,59.96234 -42.21316,108.57143 -94.28572,108.57143 -52.07256,0 -94.28571,-48.60909 -94.28571,-108.57143 0,-59.96234 42.21315,-108.57143 94.28571,-108.57143 52.07256,0 94.28572,48.60909 94.28572,108.57143 z"
       sodipodi:ry="108.57143"
       sodipodi:rx="94.285713"
       sodipodi:cy="220.93361"
       sodipodi:cx="337.14285"
       id="path5154"
       style="fill:url(#radialGradient5162);fill-opacity:1;stroke:none"
       sodipodi:type="arc" />
    <g
       id="g5007"
       transform="translate(4.1071429,-4.6428572)">
      <path
         sodipodi:nodetypes="csccssscssssssssssc"
         inkscape:connector-curvature="0"
         id="path5799"
         d="m 15.843155,1046.5667 c 0,0 6.986852,-10.6715 8.493901,-11.0827 1.507049,-0.4113 5.318005,-0.5095 6.414441,0.4019 1.879618,1.3604 4.686475,5.7658 6.993978,5.8034 1.232956,-0.056 2.601082,-0.3286 3.1807,0.4099 0.579675,0.7385 0.575981,2.9925 -0.544621,3.1189 -1.120602,0.1264 -4.130988,1.0263 -5.448426,0.052 -1.31738,-0.9745 -5.397643,-3.5264 -5.397643,-3.5264 0,0 2.838863,2.4653 3.246977,2.6454 0.408273,0.1799 2.087025,1.8606 3.477576,1.8704 1.351189,0.01 4.515079,0.8519 5.809041,0.3212 1.398139,-0.5736 4.685879,-1.0615 5.434551,-0.5932 0.748672,0.4682 1.585478,2.0445 0.775205,2.5907 -0.810221,0.546 -2.951234,1.3881 -3.768764,1.7793 -0.817478,0.3911 -6.428893,1.6195 -8.695419,1.33 -1.883631,-0.2406 -6.675293,-3.6485 -8.022903,-4.4914 -1.347609,-0.8428 -3.011556,-3.0117 -4.025907,-1.3899 -1.014351,1.6218 -2.374055,3.6293 -2.273815,4.2184 0.100245,0.5891 -5.648978,-3.4576 -5.648978,-3.4576 z"
         style="fill:url(#linearGradient5107);fill-opacity:1;stroke:#000000;stroke-width:0.25542405px;stroke-linecap:butt;stroke-linejoin:miter;stroke-opacity:1" />
      <path
         inkscape:connector-curvature="0"
         id="path5801"
         d="m 41.19062,1043.0919 c 0,0 -1.235311,-0.7726 -2.289447,0 -1.054242,0.7697 -0.472217,2.337 -0.472217,2.337 0,0 2.218235,0.034 2.552787,-0.5845 0.334412,-0.618 0.208877,-1.7494 0.208877,-1.7494 z"
         style="fill:#ffb3b3;fill-opacity:0.6849315;stroke:#000000;stroke-width:0.25542405px;stroke-linecap:butt;stroke-linejoin:miter;stroke-opacity:1" />
      <path
         inkscape:connector-curvature="0"
         id="path5803"
         d="m 48.555264,1047.6245 c 0,0 -1.400704,-0.425 -3.001933,0.3034 -1.601229,0.7284 -1.161679,2.357 -1.161679,2.357 l 4.057372,-1.8245 z"
         style="fill:#ffb3b3;fill-opacity:0.6849315;stroke:#000000;stroke-width:0.25542405px;stroke-linecap:butt;stroke-linejoin:miter;stroke-opacity:1" />
      <path
         style="fill:url(#radialGradient5109);fill-opacity:1;stroke:none"
         d="m 41.19062,1043.0919 c 0,0 -1.235311,-0.7726 -2.289447,0 -1.054242,0.7697 -0.472217,2.337 -0.472217,2.337 0,0 2.218235,0.034 2.552734,-0.5844 0.334465,-0.6181 0.20893,-1.7495 0.20893,-1.7495 z"
         id="path5813"
         inkscape:connector-curvature="0" />
      <path
         style="fill:url(#radialGradient5111);fill-opacity:1;stroke:none"
         d="m 48.555264,1047.6245 c 0,0 -1.400757,-0.4249 -3.001933,0.3034 -1.601229,0.7284 -1.161733,2.357 -1.161733,2.357 l 4.057426,-1.8245 z"
         id="path5815"
         inkscape:connector-curvature="0" />
      <path
         style="fill:url(#linearGradient5113);fill-opacity:1;stroke:none"
         d="m 15.843155,1046.5667 c 0,0 6.986799,-10.6714 8.493848,-11.0826 1.507048,-0.4113 5.318005,-0.5095 6.414494,0.4018 1.879564,1.3605 4.686475,5.7658 6.993978,5.8034 1.232956,-0.056 2.601029,-0.3285 3.1807,0.4099 0.579622,0.7386 0.575981,2.9925 -0.544621,3.1189 -1.120602,0.1264 -4.130988,1.0263 -5.448427,0.052 -1.317379,-0.9745 -5.397642,-3.5264 -5.397642,-3.5264 0,0 2.83881,2.4654 3.246977,2.6454 0.408273,0.1799 2.086972,1.8607 3.477575,1.8704 1.35119,0.01 4.51508,0.8519 5.809042,0.3212 1.398086,-0.5735 4.685879,-1.0615 5.434551,-0.5932 0.748672,0.4682 1.585478,2.0445 0.775205,2.5907 -0.810221,0.546 -2.951287,1.3882 -3.768764,1.7793 -0.817478,0.3911 -6.428947,1.6196 -8.695419,1.33 -1.883632,-0.2406 -6.675347,-3.6484 -8.022956,-4.4913 -1.347609,-0.8428 -3.011503,-3.0118 -4.025907,-1.3899 -1.014298,1.6217 -2.374002,3.6292 -2.273762,4.2183 0.100245,0.5891 -5.648978,-3.4576 -5.648978,-3.4576 z"
         id="path5837"
         inkscape:connector-curvature="0"
         sodipodi:nodetypes="csccssscssssssssssc" />
      <path
         style="fill:url(#linearGradient5115);fill-opacity:1;stroke:#000000;stroke-width:0.25542405px;stroke-linecap:butt;stroke-linejoin:miter;stroke-opacity:1"
         d="m 17.320478,1047.4907 c 0,0 6.537647,-10.9525 6.247883,-12.4875 -0.289764,-1.535 -1.869246,-5.0047 -3.16856,-5.5917 -2.045805,-1.0947 -7.235264,-1.6906 -8.278928,-3.7489 -0.48899,-1.1332 -0.842815,-2.4826 -1.760536,-2.6806 -0.9176667,-0.198 -2.9427787,0.7918 -2.5660367,1.8547 0.37674,1.0629 0.88511,4.1635 2.3377627,4.9217 1.452707,0.758 5.532969,3.31 5.532969,3.31 0,0 -3.459065,-1.4737 -3.799622,-1.7618 -0.3404,-0.2884 -2.5863267,-1.0623 -3.2036397,-2.3084 -0.599902,-1.2107 -2.741967,-3.6869 -2.831053,-5.0826 -0.09612,-1.5082 -1.096281,-4.6779 -1.844953,-5.1461 -0.748671,-0.4683 -2.532219,-0.5308 -2.668685,0.4367 -0.136416,0.9675 0.04345,3.2611 0.04946,4.1674 0.0061,0.9062 1.357297,6.4893 2.609527,8.4006 1.04061,1.5884 6.2018677,4.4054 7.5494777,5.2483 1.34761,0.8428 4.02596,1.3898 3.01161,3.0116 -1.014351,1.6218 -2.224328,3.7229 -2.797886,3.8906 -0.573561,0.1677 5.581102,3.5661 5.581102,3.5661 z"
         id="path5874"
         inkscape:connector-curvature="0"
         sodipodi:nodetypes="csccssscssssssssssc" />
      <path
         style="fill:#ffb3b3;fill-opacity:0.6849315;stroke:#000000;stroke-width:0.25542405px;stroke-linecap:butt;stroke-linejoin:miter;stroke-opacity:1"
         d="m 9.3520353,1023.1787 c 0,0 1.2353097,0.7726 1.0047117,2.0572 -0.230704,1.2848 -1.8946917,1.4474 -1.8946917,1.4474 0,0 -1.001057,-1.9798 -0.59164,-2.5512 0.409309,-0.5711 1.48162,-0.9534 1.48162,-0.9534 z"
         id="path5876"
         inkscape:connector-curvature="0" />
      <path
         style="fill:#ffb3b3;fill-opacity:0.6849315;stroke:#000000;stroke-width:0.25542405px;stroke-linecap:butt;stroke-linejoin:miter;stroke-opacity:1"
         d="m 2.0535673,1018.5403 c 0,0 0.995048,1.0735 1.040895,2.832 0.04585,1.7585 -1.610884,2.076 -1.610884,2.076 l -0.135187,-4.4466 z"
         id="path5878"
         inkscape:connector-curvature="0" />
      <path
         inkscape:connector-curvature="0"
         id="path5880"
         d="m 9.3520353,1023.1787 c 0,0 1.2353097,0.7726 1.0047117,2.0572 -0.230704,1.2848 -1.8946917,1.4474 -1.8946917,1.4474 0,0 -1.001057,-1.9798 -0.591693,-2.5511 0.409362,-0.5712 1.481673,-0.9535 1.481673,-0.9535 z"
         style="fill:url(#radialGradient5117);fill-opacity:1;stroke:none" />
      <path
         inkscape:connector-curvature="0"
         id="path5882"
         d="m 2.0535673,1018.5403 c 0,0 0.994995,1.0736 1.040895,2.832 0.04585,1.7585 -1.610937,2.0761 -1.610937,2.0761 l -0.135134,-4.4467 z"
         style="fill:url(#radialGradient5119);fill-opacity:1;stroke:none" />
      <path
         sodipodi:nodetypes="csccssscssssssssssc"
         inkscape:connector-curvature="0"
         id="path5884"
         d="m 17.320477,1047.4907 c 0,0 6.537595,-10.9524 6.247831,-12.4874 -0.289764,-1.535 -1.869246,-5.0047 -3.168507,-5.5918 -2.045858,-1.0946 -7.235264,-1.6906 -8.278929,-3.7489 -0.488989,-1.1332 -0.842867,-2.4825 -1.760535,-2.6806 -0.9177207,-0.1979 -2.9427787,0.7918 -2.5660377,1.8547 0.376741,1.0629 0.885111,4.1635 2.3377637,4.9217 1.452707,0.758 5.532969,3.31 5.532969,3.31 0,0 -3.459118,-1.4736 -3.799622,-1.7618 -0.3404,-0.2884 -2.5863797,-1.0622 -3.2036397,-2.3084 -0.599902,-1.2107 -2.741967,-3.6869 -2.831053,-5.0826 -0.09617,-1.5081 -1.096281,-4.6779 -1.844953,-5.1461 -0.748671,-0.4683 -2.532219,-0.5308 -2.668685,0.4367 -0.136416,0.9675 0.0434,3.2612 0.04946,4.1674 0.0061,0.9062 1.357244,6.4894 2.609527,8.4006 1.04061,1.5884 6.2018147,4.4055 7.5494247,5.2483 1.347609,0.8429 4.026013,1.3898 3.01161,3.0117 -1.014298,1.6217 -2.224275,3.7228 -2.797833,3.8905 -0.573561,0.1677 5.581102,3.5661 5.581102,3.5661 z"
         style="fill:url(#linearGradient5121);fill-opacity:1;stroke:none" />
    </g>
    <g
       id="g4946"
       style="filter:url(#filter4968)"
       transform="matrix(2.320229,0,0,2.320229,-40.531255,-1349.4051)">
      <path
         transform="matrix(0.0625404,0,0,0.05430319,13.377725,1007.3291)"
         d="m 431.42857,220.93361 c 0,59.96234 -42.21316,108.57143 -94.28572,108.57143 -52.07256,0 -94.28571,-48.60909 -94.28571,-108.57143 0,-59.96234 42.21315,-108.57143 94.28571,-108.57143 52.07256,0 94.28572,48.60909 94.28572,108.57143 z"
         sodipodi:ry="108.57143"
         sodipodi:rx="94.285713"
         sodipodi:cy="220.93361"
         sodipodi:cx="337.14285"
         id="path4938"
         style="fill:#000000;fill-opacity:1;stroke:none"
         sodipodi:type="arc" />
      <path
         sodipodi:type="arc"
         style="fill:#000000;fill-opacity:1;stroke:none"
         id="path4940"
         sodipodi:cx="52.149124"
         sodipodi:cy="49.239834"
         sodipodi:rx="28.41054"
         sodipodi:ry="28.284271"
         d="m 80.559664,49.239834 c 0,15.620971 -12.719832,28.284271 -28.41054,28.284271 -15.690708,0 -28.410539,-12.6633 -28.410539,-28.284271 0,-15.620972 12.719831,-28.284271 28.410539,-28.284271 15.690708,0 28.41054,12.663299 28.41054,28.284271 z"
         transform="matrix(0.11793332,0,0,0.11791549,28.285726,1013.4307)" />
      <path
         style="fill:#000000;fill-opacity:1;stroke:#ffe4ff;stroke-width:0.24107131px;stroke-linecap:butt;stroke-linejoin:miter;stroke-opacity:0.46560848"
         d="m 32.75674,1018.1105 c 0.021,-0.097 0.082,-0.1782 0.06873,-0.2971 0.049,-0.1779 -0.106218,-0.2537 -0.206178,-0.3085 -0.154514,0 -0.238796,-0.1037 -0.331174,-0.1779 -0.09586,-0.026 -0.111434,-0.1571 -0.08118,-0.2581 0.03329,-0.066 0.09178,-0.1395 0.18327,-0.1817 0.100119,-0.025 0.264679,-0.017 0.320723,0.036 0.05647,0.034 2.85e-4,0.2199 0.10947,0.2336 0.07593,0.021 0.08469,0.1628 0.15398,0.2145 0.03723,0.089 0.19046,0.1024 0.320252,0.091 0.05623,-0.069 0.192595,-0.1126 0.196141,-0.2442 0.0037,-0.1105 -0.112098,-0.1518 -0.19567,-0.2343 -0.07813,-0.046 -0.101275,-0.1659 -0.132458,-0.2578 -0.06132,-0.06 -0.08197,-0.2435 -0.0279,-0.3478 0.07753,-0.1197 0.246112,-0.074 0.377995,-0.085 0.122207,0.015 0.247926,0.1485 0.217633,0.2972 0.01076,0.1452 -0.05606,0.3063 0.04459,0.4228 0.03263,0.05 0.07702,0.1522 0.150135,0.1884 0.105487,0.015 0.355391,0.088 0.309268,-0.1033 0.0071,-0.1336 0.01373,-0.2137 -0.04582,-0.3206 -0.01756,-0.092 -0.124217,-0.1575 -0.148907,-0.2423 -0.03702,-0.07 -0.144282,-0.2219 -0.09164,-0.3512 0.07111,-0.063 0.21539,-0.079 0.332177,-0.085 0.08806,0.068 0.192892,0.062 0.26345,0.1574 0.06388,0.058 0.06987,0.2016 0.10309,0.315 -0.0086,0.1027 0.02778,0.2473 -0.04582,0.3028 -0.03545,0.087 -0.06615,0.2073 -0.04582,0.3149 0.07168,0.079 0.217617,0.059 0.338193,0.073 0.107862,0 0.246855,0.019 0.223071,-0.1333 0.08772,-0.1715 0.005,-0.286 -0.103089,-0.3997 -0.04499,-0.113 -0.07765,-0.3571 0.09164,-0.3754 0.132716,-0.02 0.282464,-0.042 0.412357,-0.012 0.09587,0.1067 0.114166,0.2509 0.217633,0.3875 0.01791,0.1138 0.02474,0.2694 -0.01145,0.3755 0.0049,0.1502 -0.08776,0.1557 -0.224035,0.1454 -0.223601,-0.057 -0.132041,0.2193 -0.05087,0.2906 0.09743,0.1033 0.20283,0.1581 0.349455,0.1575 0.159886,0.044 0.205477,-0.088 0.188901,-0.2365 -0.01969,-0.1291 -0.05784,-0.255 -0.05727,-0.3935 -0.02268,-0.1966 0.265609,-0.1383 0.412383,-0.1706 0.176763,-0.037 0.484884,-0.072 0.446695,0.1952 -0.0074,0.1168 0.02062,0.1961 0.01146,0.3147 -0.102689,0.1244 -0.332751,0.1069 -0.492538,0.1575 -0.102193,0.041 -0.173048,0.1318 -0.230649,0.2416 -0.05119,0.1155 -0.062,0.2623 -0.05571,0.4124 0.0051,0.1285 0.198275,0.2481 0.297814,0.1575 0.110421,-0.067 0.08488,-0.1948 0.148907,-0.2544 0.01542,-0.089 0.07712,-0.1709 0.171815,-0.1938 0.04674,-0.081 0.204042,-0.077 0.240542,-0.024 0.107934,0.049 0.116205,0.1864 0.160361,0.2786 0.02175,0.1547 -0.10655,0.2443 -0.234923,0.2538 -0.138221,0.028 -0.237574,0.059 -0.303433,0.1217 -0.03556,0.06 -0.09874,0.1225 -0.160361,0.1816 -0.05743,0.068 -0.04565,0.219 0.04387,0.2436 0.08506,0.069 0.232953,0.037 0.27751,-0.061 0.04101,-0.1203 0.197155,-0.1189 0.308616,-0.1579 0.194521,-0.1076 0.261366,0.016 0.343631,0.097 0.0028,0.092 0.110636,0.1406 0.08018,0.2665 0.02682,0.1276 0.04186,0.2959 0,0.4239 -0.10502,0.045 -0.233012,0.05 -0.355086,0.048 -0.154888,0.019 -0.344931,0.056 -0.44672,-0.097 -0.08892,-0.039 -0.239279,-0.1376 -0.332177,-0.097 -0.03687,0.123 -0.128862,0.3461 0.05727,0.3876 0.106655,0.018 0.224698,0.011 0.320915,0.036 0.125035,-0.028 0.152212,0.089 0.240349,0.1574 0.07603,0.076 0.151181,0.2629 0.148907,0.412 2.38e-4,0.1801 0.0019,0.3702 -0.04582,0.5328 -0.08476,0.1115 -0.20716,0.1152 -0.343631,0.1453 -0.121237,0.025 -0.127072,-0.1149 -0.18327,-0.1938 -0.09303,-0.073 -0.112038,-0.1989 -0.103089,-0.3391 -0.0388,-0.095 -0.0671,-0.1989 -0.189286,-0.1817 -0.174616,-0.047 -0.143651,0.1428 -0.223072,0.2543 -0.04607,0.1122 -0.01274,0.2596 -0.02291,0.3876 0.08329,0.061 0.122835,0.2499 0.196436,0.3553 0.02231,0.1542 0.113934,0.2948 0.06702,0.4562 -0.07343,0.1442 -0.234357,0.2456 -0.323511,0.2843 -0.167167,0.052 -0.342628,-0.1274 -0.352297,-0.2843 -0.0113,-0.1537 -0.02267,-0.2917 -0.14318,-0.3754 -0.108982,-0.1636 -0.304022,-0.1178 -0.463902,-0.1091 -0.104243,0.047 -0.09909,0.1851 -0.103089,0.3028 -0.02933,0.1371 0.07543,0.2104 0.114543,0.315 0.07859,0.115 0.003,0.3261 -0.04582,0.3512 -0.05607,0.1173 -0.174718,0.1209 -0.297814,0.1211 -0.129904,0.072 -0.484438,0.1039 -0.320722,-0.1574 0.04962,-0.1228 0.111652,-0.2309 0.09164,-0.3817 0.0096,-0.1345 -0.02388,-0.2271 -0.06873,-0.3329 -0.07121,-0.065 -0.165149,-0.099 -0.286359,-0.1575 -0.07377,-0.01 -0.242689,-0.09 -0.307814,-0.024 -0.04637,0.1666 -0.03172,0.3654 0.04436,0.5203 0.06707,0.092 0.141749,0.2015 0.137453,0.3334 0.01084,0.1278 -0.184476,0.023 -0.263451,0.091 -0.130679,0.013 -0.265867,0 -0.356875,-0.1034 -0.105901,-0.062 -0.196568,-0.055 -0.227298,-0.1994 0.03244,-0.1765 0.26225,0.064 0.321589,-0.06 0.04005,-0.1963 0.08757,-0.3978 0.09077,-0.5939 -0.02847,-0.06 -0.139342,-0.1804 -0.194725,-0.2301 -0.108757,-0.026 -0.273152,-0.1783 -0.423812,-0.097 -0.160731,0.082 -0.0623,0.2954 -0.125998,0.436 -0.007,0.1162 -0.241117,0.1124 -0.309268,0.073 -0.124704,-0.027 -0.239564,-0.1606 -0.297813,-0.2907 -0.108704,-0.1217 -0.05632,-0.3141 -0.06873,-0.4724 0.0947,-0.051 0.251516,-0.042 0.36654,-0.024 0.17082,0.045 0.263779,-0.019 0.229088,-0.2301 0.03148,-0.1339 0.01162,-0.3063 -0.09164,-0.3755 -0.12485,-0.067 -0.291646,-0.1388 -0.423812,-0.109 -0.122869,0.013 -0.169342,0.1692 -0.251539,0.1877 -0.06225,0.089 -0.211714,0.059 -0.299144,0.033 -0.136671,0.014 -0.1886,-0.1106 -0.170943,-0.2452 0.0033,-0.1736 -0.02161,-0.3806 0.06873,-0.5083 0.124078,-0.07 0.324883,-0.1262 0.481083,-0.109 0.06545,0.066 0.104793,0.2103 0.223457,0.1938 0.108844,0.021 0.18564,-0.033 0.188308,-0.1466 0.0091,-0.099 0.05635,-0.2732 -0.01412,-0.35 -0.01629,-0.07 -0.174539,-0.1186 -0.294552,-0.109 -0.138597,0.037 -0.297965,0.018 -0.44109,0.048 -0.126168,0 -0.21576,-0.06 -0.1889,-0.1938 -0.01064,-0.1587 0.04,-0.3185 0.206178,-0.3633 0.08295,-0.1106 0.298822,-0.067 0.36654,0.024 0.102907,0.063 0.1976,0.1778 0.343824,0.1695 0.131665,0.033 0.182176,-0.078 0.160169,-0.2059 0.01554,-0.1116 -0.0746,-0.202 -0.148907,-0.218 -0.109271,-0.05 -0.241343,-0.056 -0.355086,-0.097 -0.134688,-0.068 -0.235877,-0.092 -0.204942,-0.2904 0.06414,-0.083 0.254061,-0.1187 0.365304,-0.085 0.121639,0.04 0.20273,0.1031 0.319366,0.1612 0.09624,0.058 0.127412,0.1168 0.218989,0.1537 l 0.04582,0 0.05727,0.024 0,0 z"
         id="path4942"
         inkscape:connector-curvature="0"
         inkscape:export-filename="C:\Users\dan\Desktop\Projects\ballbreaker\ballbreaker\Assets\Images\png\path6342.png"
         inkscape:export-xdpi="90"
         inkscape:export-ydpi="90" />
      <path
         sodipodi:type="arc"
         style="fill:#000000;fill-opacity:1;stroke:none"
         id="path4944"
         sodipodi:cx="337.14285"
         sodipodi:cy="220.93361"
         sodipodi:rx="94.285713"
         sodipodi:ry="108.57143"
         d="m 431.42857,220.93361 c 0,59.96234 -42.21316,108.57143 -94.28572,108.57143 -52.07256,0 -94.28571,-48.60909 -94.28571,-108.57143 0,-59.96234 42.21315,-108.57143 94.28571,-108.57143 52.07256,0 94.28572,48.60909 94.28572,108.57143 z"
         transform="matrix(0.0625404,0,0,0.05430319,13.335606,1007.3291)" />
    </g>
    <path
       transform="matrix(0.14510805,0,0,0.12599584,-8.7916255,982.26429)"
       d="m 431.42857,220.93361 c 0,59.96234 -42.21316,108.57143 -94.28572,108.57143 -52.07256,0 -94.28571,-48.60909 -94.28571,-108.57143 0,-59.96234 42.21315,-108.57143 94.28571,-108.57143 52.07256,0 94.28572,48.60909 94.28572,108.57143 z"
       sodipodi:ry="108.57143"
       sodipodi:rx="94.285713"
       sodipodi:cy="220.93361"
       sodipodi:cx="337.14285"
       id="path6308"
       style="fill:url(#radialGradient5144);fill-opacity:1;stroke:none"
       sodipodi:type="arc" />
    <path
       sodipodi:type="arc"
       style="fill:url(#radialGradient5146);fill-opacity:1;stroke:none"
       id="path6318"
       sodipodi:cx="52.149124"
       sodipodi:cy="49.239834"
       sodipodi:rx="28.41054"
       sodipodi:ry="28.284271"
       d="m 80.559664,49.239834 c 0,15.620971 -12.719832,28.284271 -28.41054,28.284271 -15.690708,0 -28.410539,-12.6633 -28.410539,-28.284271 0,-15.620972 12.719831,-28.284271 28.410539,-28.284271 15.690708,0 28.41054,12.663299 28.41054,28.284271 z"
       transform="matrix(0.27363231,0,0,0.27359094,25.798351,996.4214)" />
    <path
       style="fill:none;stroke:#ffe4ff;stroke-width:0.55934066px;stroke-linecap:butt;stroke-linejoin:miter;stroke-opacity:0.46560848"
       d="m 36.172127,1007.2796 c 0.04872,-0.2251 0.190259,-0.4135 0.159469,-0.6893 0.113692,-0.4128 -0.24645,-0.5887 -0.47838,-0.7158 -0.358508,0 -0.554061,-0.2406 -0.768399,-0.4128 -0.222417,-0.06 -0.258553,-0.3645 -0.188356,-0.5988 0.07724,-0.1532 0.21295,-0.3237 0.425228,-0.4216 0.232299,-0.058 0.614116,-0.039 0.744151,0.084 0.131023,0.079 6.61e-4,0.5102 0.253995,0.542 0.176175,0.049 0.1965,0.3777 0.357269,0.4977 0.08638,0.2065 0.441911,0.2376 0.743058,0.2111 0.130467,-0.1601 0.446865,-0.2612 0.455092,-0.5666 0.0086,-0.2564 -0.260093,-0.3522 -0.453999,-0.5436 -0.18128,-0.1067 -0.234981,-0.3849 -0.307333,-0.5981 -0.142276,-0.1393 -0.190189,-0.565 -0.06473,-0.807 0.179887,-0.2778 0.571036,-0.1717 0.877035,-0.1972 0.283548,0.035 0.575245,0.3445 0.504958,0.6895 0.02497,0.3369 -0.130072,0.7107 0.103459,0.981 0.07571,0.116 0.178704,0.3532 0.348348,0.4372 0.244754,0.035 0.824588,0.2041 0.717572,-0.2397 0.01647,-0.31 0.03186,-0.4959 -0.106313,-0.7439 -0.04074,-0.2135 -0.288212,-0.3654 -0.345498,-0.5622 -0.0859,-0.1624 -0.334767,-0.5148 -0.212626,-0.8148 0.164992,-0.1462 0.499754,-0.1833 0.770727,-0.1973 0.204319,0.1578 0.447553,0.1439 0.611264,0.3652 0.148216,0.1346 0.162115,0.4678 0.239193,0.7309 -0.01995,0.2383 0.06445,0.5738 -0.106313,0.7026 -0.08225,0.2018 -0.153484,0.481 -0.106313,0.7306 0.166314,0.1833 0.504921,0.1369 0.784685,0.1694 0.250264,0 0.57276,0.044 0.517576,-0.3093 0.20353,-0.3979 0.0116,-0.6636 -0.23919,-0.9274 -0.104387,-0.2622 -0.180166,-0.8285 0.212625,-0.871 0.307932,-0.046 0.655382,-0.097 0.956763,-0.028 0.22244,0.2475 0.264891,0.5821 0.504959,0.899 0.04156,0.2641 0.0574,0.6251 -0.02657,0.8713 0.01137,0.3485 -0.203623,0.3612 -0.519813,0.3373 -0.518805,-0.1322 -0.306365,0.5089 -0.11803,0.6743 0.22606,0.2397 0.470612,0.3668 0.810816,0.3654 0.370972,0.1021 0.476754,-0.2041 0.438294,-0.5487 -0.04569,-0.2995 -0.134202,-0.5917 -0.13288,-0.913 -0.05262,-0.4562 0.616274,-0.3209 0.956823,-0.3958 0.410131,-0.086 1.125042,-0.1671 1.036435,0.4529 -0.01717,0.271 0.04784,0.455 0.02659,0.7302 -0.238262,0.2886 -0.772059,0.248 -1.142801,0.3654 -0.237112,0.095 -0.401511,0.3058 -0.535159,0.5606 -0.118772,0.2679 -0.143854,0.6085 -0.12926,0.9568 0.01183,0.2982 0.460044,0.5757 0.690997,0.3655 0.256202,-0.1555 0.196941,-0.452 0.345498,-0.5903 0.03578,-0.2065 0.178936,-0.3965 0.39865,-0.4497 0.108448,-0.1879 0.473424,-0.1786 0.558113,-0.056 0.250431,0.1137 0.269622,0.4325 0.372074,0.6465 0.05046,0.3589 -0.24722,0.5668 -0.545075,0.5888 -0.320704,0.065 -0.551226,0.1369 -0.704034,0.2824 -0.08251,0.1392 -0.2291,0.2842 -0.372074,0.4214 -0.133251,0.1577 -0.105919,0.5081 0.101788,0.5652 0.197359,0.1601 0.540504,0.086 0.643887,-0.1416 0.09515,-0.2791 0.457445,-0.2758 0.71606,-0.3663 0.451333,-0.2497 0.606429,0.037 0.797302,0.225 0.0065,0.2135 0.256701,0.3263 0.186036,0.6184 0.06223,0.296 0.09712,0.6865 0,0.9835 -0.24367,0.1044 -0.540641,0.116 -0.823881,0.1114 -0.359375,0.044 -0.800319,0.1299 -1.036492,-0.2251 -0.206315,-0.091 -0.555182,-0.3192 -0.770727,-0.225 -0.08555,0.2853 -0.298989,0.803 0.132879,0.8993 0.247464,0.042 0.521351,0.025 0.744597,0.083 0.29011,-0.065 0.353166,0.2065 0.557664,0.3652 0.176407,0.1764 0.350775,0.61 0.345499,0.9559 5.52e-4,0.4179 0.0044,0.859 -0.106313,1.2363 -0.196663,0.2587 -0.480659,0.2673 -0.797303,0.3371 -0.281297,0.058 -0.294836,-0.2666 -0.425228,-0.4497 -0.215851,-0.1693 -0.259954,-0.4615 -0.23919,-0.7868 -0.09002,-0.2204 -0.155688,-0.4614 -0.439187,-0.4215 -0.405149,-0.1091 -0.333303,0.3313 -0.517578,0.59 -0.106893,0.2603 -0.02956,0.6023 -0.05316,0.8993 0.193252,0.1415 0.285006,0.5798 0.455777,0.8244 0.05176,0.3578 0.264353,0.684 0.155502,1.0585 -0.170375,0.3346 -0.543762,0.5698 -0.75062,0.6596 -0.387866,0.1207 -0.794975,-0.2956 -0.81741,-0.6596 -0.02622,-0.3566 -0.0526,-0.6768 -0.33221,-0.871 -0.252863,-0.3796 -0.705401,-0.2734 -1.076359,-0.2532 -0.241868,0.1091 -0.229911,0.4295 -0.23919,0.7026 -0.06805,0.3181 0.175015,0.4882 0.265766,0.7309 0.182347,0.2668 0.007,0.7566 -0.106313,0.8148 -0.130095,0.2722 -0.405386,0.2805 -0.690997,0.281 -0.301407,0.1671 -1.124007,0.2411 -0.744148,-0.3652 0.11513,-0.2849 0.259058,-0.5357 0.212626,-0.8856 0.02227,-0.3121 -0.05541,-0.5269 -0.15947,-0.7724 -0.165223,-0.1508 -0.383183,-0.2297 -0.664418,-0.3655 -0.171163,-0.023 -0.563094,-0.2088 -0.714199,-0.056 -0.107589,0.3866 -0.0736,0.8479 0.102925,1.2073 0.155618,0.2134 0.32889,0.4675 0.318923,0.7735 0.02515,0.2966 -0.428027,0.053 -0.611267,0.2112 -0.303205,0.03 -0.616872,0 -0.828032,-0.2399 -0.245714,-0.1439 -0.456082,-0.1277 -0.527383,-0.4627 0.07527,-0.4095 0.60848,0.1485 0.74616,-0.1392 0.09293,-0.4555 0.203183,-0.923 0.210607,-1.378 -0.06606,-0.1392 -0.323305,-0.4186 -0.451806,-0.5339 -0.252341,-0.06 -0.633776,-0.4137 -0.983341,-0.225 -0.372933,0.1902 -0.14455,0.6854 -0.292344,1.0116 -0.01624,0.2696 -0.559447,0.2608 -0.717573,0.1694 -0.289342,-0.063 -0.555843,-0.3727 -0.690994,-0.6745 -0.252219,-0.2824 -0.130676,-0.7288 -0.15947,-1.0961 0.219726,-0.1183 0.583575,-0.097 0.850457,-0.056 0.396342,0.1044 0.612028,-0.044 0.531537,-0.5339 0.07304,-0.3107 0.02696,-0.7107 -0.212626,-0.8712 -0.289681,-0.1555 -0.676686,-0.3221 -0.983341,-0.2529 -0.285084,0.03 -0.392912,0.3926 -0.583628,0.4355 -0.144434,0.2065 -0.491225,0.1369 -0.694083,0.077 -0.317108,0.033 -0.437595,-0.2566 -0.396627,-0.5689 0.0077,-0.4028 -0.05014,-0.8831 0.15947,-1.1793 0.287889,-0.1625 0.753803,-0.2929 1.116222,-0.253 0.151859,0.1532 0.243144,0.488 0.518472,0.4497 0.252543,0.049 0.430727,-0.077 0.436918,-0.3401 0.02111,-0.2297 0.130744,-0.6339 -0.03276,-0.8121 -0.0378,-0.1624 -0.404971,-0.2752 -0.683428,-0.2529 -0.321577,0.086 -0.691347,0.042 -1.02343,0.1113 -0.292739,0 -0.500613,-0.1392 -0.438291,-0.4496 -0.02469,-0.3682 0.09281,-0.739 0.47838,-0.843 0.192463,-0.2566 0.693335,-0.1554 0.850457,0.056 0.238767,0.1462 0.458477,0.4126 0.79775,0.3933 0.305493,0.077 0.42269,-0.181 0.371629,-0.4777 0.03606,-0.259 -0.173089,-0.4687 -0.345498,-0.5058 -0.253534,-0.116 -0.559972,-0.13 -0.823881,-0.2251 -0.312507,-0.1578 -0.547289,-0.2135 -0.475513,-0.6738 0.14882,-0.1926 0.58948,-0.2754 0.847589,-0.1972 0.282231,0.093 0.47038,0.2392 0.741003,0.374 0.223298,0.1346 0.295625,0.271 0.508104,0.3566 l 0.106313,0 0.13288,0.056 0,0 z"
       id="path6342"
       inkscape:connector-curvature="0"
       inkscape:export-filename="C:\Users\dan\Desktop\Projects\ballbreaker\ballbreaker\Assets\Images\png\path6342.png"
       inkscape:export-xdpi="90"
       inkscape:export-ydpi="90" />
    <path
       sodipodi:type="arc"
       style="fill:url(#radialGradient5148);fill-opacity:1;stroke:none"
       id="path5786"
       sodipodi:cx="337.14285"
       sodipodi:cy="220.93361"
       sodipodi:rx="94.285713"
       sodipodi:ry="108.57143"
       d="m 431.42857,220.93361 c 0,59.96234 -42.21316,108.57143 -94.28572,108.57143 -52.07256,0 -94.28571,-48.60909 -94.28571,-108.57143 0,-59.96234 42.21315,-108.57143 94.28571,-108.57143 52.07256,0 94.28572,48.60909 94.28572,108.57143 z"
       transform="matrix(0.14510805,0,0,0.12599584,-8.8893512,982.26429)" />
    <text
       xml:space="preserve"
       style="font-size:21.46035957px;font-style:normal;font-weight:normal;line-height:125%;letter-spacing:0px;word-spacing:0px;fill:#000000;fill-opacity:1;stroke:none;filter:url(#filter3952);font-family:Sans"
       x="8.858181"
       y="961.36157"
       id="text3134"
       sodipodi:linespacing="125%"
       transform="matrix(0.93844753,0,0,1.0655897,3.75,0.53571429)"><tspan
         sodipodi:role="line"
         x="8.858181"
         y="961.36157"
         id="tspan3136"
         style="font-style:normal;font-variant:normal;font-weight:normal;font-stretch:normal;fill:#000000;fill-opacity:1;font-family:monofur;-inkscape-font-specification:monofur">'em</tspan></text>
    <text
       transform="scale(0.93844751,1.0655897)"
       sodipodi:linespacing="125%"
       id="text3130"
       y="961.86432"
       x="12.854142"
       style="font-size:21.46035957px;font-style:normal;font-weight:normal;line-height:125%;letter-spacing:0px;word-spacing:0px;fill:#ffffff;fill-opacity:1;stroke:none;font-family:Sans"
       xml:space="preserve"><tspan
         style="font-style:normal;font-variant:normal;font-weight:normal;font-stretch:normal;fill:#ffffff;fill-opacity:1;font-family:monofur;-inkscape-font-specification:monofur"
         id="tspan3132"
         y="961.86432"
         x="12.854142"
         sodipodi:role="line">'em</tspan></text>
    <text
       sodipodi:linespacing="125%"
       id="text5191"
       y="999.69531"
       x="3.2126136"
       style="font-size:12.60887718px;font-style:normal;font-weight:normal;line-height:125%;letter-spacing:0px;word-spacing:0px;fill:#000000;fill-opacity:1;stroke:none;filter:url(#filter5231);font-family:Sans"
       xml:space="preserve"
       transform="matrix(1.5972415,0,0,1.5285621,1.3959042,-521.46165)"><tspan
         style="font-style:normal;font-variant:normal;font-weight:normal;font-stretch:normal;fill:#000000;fill-opacity:1;font-family:monofur;-inkscape-font-specification:monofur"
         id="tspan5193"
         y="999.69531"
         x="3.2126136"
         sodipodi:role="line">break</tspan></text>
    <text
       xml:space="preserve"
       style="font-size:19.70167923px;font-style:normal;font-weight:normal;line-height:125%;letter-spacing:0px;word-spacing:0px;fill:#ffffff;fill-opacity:1;stroke:none;font-family:Sans"
       x="6.3853507"
       y="1029.0007"
       id="text5171"
       sodipodi:linespacing="125%"
       transform="scale(1.0222185,0.97826442)"><tspan
         sodipodi:role="line"
         x="6.3853507"
         y="1029.0007"
         id="tspan5179"
         style="font-style:normal;font-variant:normal;font-weight:normal;font-stretch:normal;fill:#ffffff;fill-opacity:1;font-family:monofur;-inkscape-font-specification:monofur">break</tspan></text>
    <text
       sodipodi:linespacing="125%"
       id="text5235"
       y="1045.7136"
       x="4.8632932"
       style="font-size:26.80530548px;font-style:normal;font-weight:normal;line-height:125%;letter-spacing:0px;word-spacing:0px;fill:#000000;fill-opacity:1;stroke:none;filter:url(#filter5263);font-family:Sans"
       xml:space="preserve"><tspan
         style="font-style:normal;font-variant:normal;font-weight:normal;font-stretch:normal;fill:#000000;fill-opacity:1;font-family:monofur;-inkscape-font-specification:monofur"
         y="1045.7136"
         x="4.8632932"
         id="tspan5237"
         sodipodi:role="line">down</tspan></text>
    <text
       xml:space="preserve"
       style="font-size:26.80530548px;font-style:normal;font-weight:normal;line-height:125%;letter-spacing:0px;word-spacing:0px;fill:#ffffff;fill-opacity:1;stroke:none;font-family:Sans"
       x="4.8632932"
       y="1045.7136"
       id="text5183"
       sodipodi:linespacing="125%"><tspan
         sodipodi:role="line"
         id="tspan5185"
         x="4.8632932"
         y="1045.7136"
         style="font-style:normal;font-variant:normal;font-weight:normal;font-stretch:normal;fill:#ffffff;fill-opacity:1;font-family:monofur;-inkscape-font-specification:monofur">down</tspan></text>
  </g>
</svg>
