<?xml version="1.0" encoding="UTF-8" standalone="no"?>
<!-- Created with Inkscape (http://www.inkscape.org/) -->

<svg
   xmlns:dc="http://purl.org/dc/elements/1.1/"
   xmlns:cc="http://creativecommons.org/ns#"
   xmlns:rdf="http://www.w3.org/1999/02/22-rdf-syntax-ns#"
   xmlns:svg="http://www.w3.org/2000/svg"
   xmlns="http://www.w3.org/2000/svg"
   xmlns:xlink="http://www.w3.org/1999/xlink"
   xmlns:sodipodi="http://sodipodi.sourceforge.net/DTD/sodipodi-0.dtd"
   xmlns:inkscape="http://www.inkscape.org/namespaces/inkscape"
   width="180"
   height="120"
   id="svg2"
   version="1.1"
   inkscape:version="0.48.4 r9939"
   sodipodi:docname="app-promo.svg"
   inkscape:export-filename="C:\Users\dan\Desktop\break-em-down\break-em-down\Assets\Images\app-promo.png"
   inkscape:export-xdpi="90"
   inkscape:export-ydpi="90">
  <defs
     id="defs4">
    <linearGradient
       id="linearGradient3902">
      <stop
         style="stop-color:#000000;stop-opacity:1;"
         offset="0"
         id="stop3904" />
      <stop
         style="stop-color:#c6b3b3;stop-opacity:1;"
         offset="1"
         id="stop3906" />
    </linearGradient>
    <linearGradient
       id="linearGradient5156">
      <stop
         id="stop5158"
         offset="0"
         style="stop-color:#ffffff;stop-opacity:1;" />
      <stop
         id="stop5160"
         offset="1"
         style="stop-color:#ffd000;stop-opacity:1;" />
    </linearGradient>
    <linearGradient
       inkscape:collect="always"
       xlink:href="#linearGradient5847"
       id="linearGradient5892"
       gradientUnits="userSpaceOnUse"
       x1="78.791893"
       y1="1081.5801"
       x2="74.612724"
       y2="1004.8085"
       gradientTransform="matrix(-0.12673142,-0.07926318,-0.13291358,0.21251137,159.14382,822.08629)" />
    <linearGradient
       inkscape:collect="always"
       id="linearGradient5847">
      <stop
         style="stop-color:#000000;stop-opacity:1;"
         offset="0"
         id="stop5849" />
      <stop
         style="stop-color:#000000;stop-opacity:0;"
         offset="1"
         id="stop5851" />
    </linearGradient>
    <radialGradient
       inkscape:collect="always"
       xlink:href="#linearGradient5827"
       id="radialGradient5890"
       gradientUnits="userSpaceOnUse"
       gradientTransform="matrix(-0.12673142,-0.07926318,-0.11376548,0.18189608,139.88588,852.87722)"
       cx="186.9371"
       cy="1007.8022"
       fx="186.9371"
       fy="1007.8022"
       r="10.402095" />
    <linearGradient
       id="linearGradient5827">
      <stop
         style="stop-color:#ffffff;stop-opacity:1;"
         offset="0"
         id="stop5829" />
      <stop
         style="stop-color:#ffffff;stop-opacity:0;"
         offset="1"
         id="stop5831" />
    </linearGradient>
    <radialGradient
       inkscape:collect="always"
       xlink:href="#linearGradient5827"
       id="radialGradient5888"
       gradientUnits="userSpaceOnUse"
       gradientTransform="matrix(-0.12673142,-0.07926318,-0.09743262,0.15578197,123.52269,879.0398)"
       cx="135.43362"
       cy="1008.0847"
       fx="135.43362"
       fy="1008.0847"
       r="9.3695955" />
    <linearGradient
       id="linearGradient3466">
      <stop
         style="stop-color:#ffffff;stop-opacity:1;"
         offset="0"
         id="stop3468" />
      <stop
         style="stop-color:#ffffff;stop-opacity:0;"
         offset="1"
         id="stop3470" />
    </linearGradient>
    <linearGradient
       inkscape:collect="always"
       xlink:href="#linearGradient5805"
       id="linearGradient5886"
       gradientUnits="userSpaceOnUse"
       x1="107.33379"
       y1="1059.6093"
       x2="106.93253"
       y2="962.88721"
       gradientTransform="matrix(-0.12673142,-0.07926318,-0.13291357,0.21251136,159.14383,822.08628)" />
    <linearGradient
       id="linearGradient5805">
      <stop
         style="stop-color:#ff9b5e;stop-opacity:1;"
         offset="0"
         id="stop5807" />
      <stop
         style="stop-color:#d8c786;stop-opacity:1;"
         offset="1"
         id="stop5809" />
    </linearGradient>
    <linearGradient
       gradientTransform="matrix(0.12673142,0.07926318,-0.13291358,0.21251137,156.45033,820.40167)"
       inkscape:collect="always"
       xlink:href="#linearGradient5847"
       id="linearGradient5853"
       x1="78.791893"
       y1="1081.5801"
       x2="74.612724"
       y2="1004.8085"
       gradientUnits="userSpaceOnUse" />
    <radialGradient
       inkscape:collect="always"
       xlink:href="#linearGradient5827"
       id="radialGradient5835"
       cx="186.9371"
       cy="1007.8022"
       fx="186.9371"
       fy="1007.8022"
       r="10.402095"
       gradientTransform="matrix(0.12673142,0.07926318,-0.11376548,0.18189608,137.19238,851.19259)"
       gradientUnits="userSpaceOnUse" />
    <linearGradient
       id="linearGradient3484">
      <stop
         style="stop-color:#ffffff;stop-opacity:1;"
         offset="0"
         id="stop3486" />
      <stop
         style="stop-color:#ffffff;stop-opacity:0;"
         offset="1"
         id="stop3488" />
    </linearGradient>
    <radialGradient
       inkscape:collect="always"
       xlink:href="#linearGradient5827"
       id="radialGradient5833"
       cx="135.43362"
       cy="1008.0847"
       fx="135.43362"
       fy="1008.0847"
       r="9.3695955"
       gradientTransform="matrix(0.12673142,0.07926318,-0.09743262,0.15578197,120.8292,877.35518)"
       gradientUnits="userSpaceOnUse" />
    <linearGradient
       id="linearGradient3491">
      <stop
         style="stop-color:#ffffff;stop-opacity:1;"
         offset="0"
         id="stop3493" />
      <stop
         style="stop-color:#ffffff;stop-opacity:0;"
         offset="1"
         id="stop3495" />
    </linearGradient>
    <linearGradient
       inkscape:collect="always"
       xlink:href="#linearGradient5805"
       id="linearGradient5811"
       x1="107.33379"
       y1="1059.6093"
       x2="106.93253"
       y2="962.88721"
       gradientUnits="userSpaceOnUse" />
    <linearGradient
       id="linearGradient3498">
      <stop
         style="stop-color:#ff9b5e;stop-opacity:1;"
         offset="0"
         id="stop3500" />
      <stop
         style="stop-color:#d8c786;stop-opacity:1;"
         offset="1"
         id="stop3502" />
    </linearGradient>
    <linearGradient
       gradientTransform="matrix(0.12673142,0.07926318,-0.13291357,0.21251136,156.45034,820.40165)"
       y2="962.88721"
       x2="106.93253"
       y1="1059.6093"
       x1="107.33379"
       gradientUnits="userSpaceOnUse"
       id="linearGradient3516"
       xlink:href="#linearGradient5805"
       inkscape:collect="always" />
    <filter
       inkscape:collect="always"
       id="filter4759"
       x="-0.17332883"
       width="1.3466578"
       y="-0.34319684"
       height="1.6863937"
       color-interpolation-filters="sRGB">
      <feGaussianBlur
         inkscape:collect="always"
         stdDeviation="2.3664792"
         id="feGaussianBlur4761" />
    </filter>
    <filter
       inkscape:collect="always"
       id="filter4763"
       x="-1.9285288"
       width="4.8570576"
       y="-2.1186728"
       height="5.2373457"
       color-interpolation-filters="sRGB">
      <feGaussianBlur
         inkscape:collect="always"
         stdDeviation="2.3664792"
         id="feGaussianBlur4765" />
    </filter>
    <filter
       inkscape:collect="always"
       id="filter4767"
       x="-1.3462389"
       width="3.6924777"
       y="-2.0403235"
       height="5.0806475"
       color-interpolation-filters="sRGB">
      <feGaussianBlur
         inkscape:collect="always"
         stdDeviation="2.3664792"
         id="feGaussianBlur4769" />
    </filter>
    <filter
       inkscape:collect="always"
       id="filter4771"
       x="-1.9285315"
       width="4.8570628"
       y="-2.1186726"
       height="5.2373452"
       color-interpolation-filters="sRGB">
      <feGaussianBlur
         inkscape:collect="always"
         stdDeviation="2.3664792"
         id="feGaussianBlur4773" />
    </filter>
    <filter
       inkscape:collect="always"
       id="filter4775"
       x="-1.3462265"
       width="3.6924531"
       y="-2.0403531"
       height="5.0807061"
       color-interpolation-filters="sRGB">
      <feGaussianBlur
         inkscape:collect="always"
         stdDeviation="2.3664792"
         id="feGaussianBlur4777" />
    </filter>
    <filter
       inkscape:collect="always"
       id="filter4779"
       x="-0.17332883"
       width="1.3466578"
       y="-0.34319821"
       height="1.6863964"
       color-interpolation-filters="sRGB">
      <feGaussianBlur
         inkscape:collect="always"
         stdDeviation="2.3664792"
         id="feGaussianBlur4781" />
    </filter>
    <filter
       inkscape:collect="always"
       id="filter4783"
       x="-0.25455573"
       width="1.5091115"
       y="-0.19550477"
       height="1.3910094"
       color-interpolation-filters="sRGB">
      <feGaussianBlur
         inkscape:collect="always"
         stdDeviation="2.3664792"
         id="feGaussianBlur4785" />
    </filter>
    <filter
       inkscape:collect="always"
       id="filter4787"
       x="-2.1732564"
       width="5.3465128"
       y="-1.6205987"
       height="4.2411976"
       color-interpolation-filters="sRGB">
      <feGaussianBlur
         inkscape:collect="always"
         stdDeviation="2.3664792"
         id="feGaussianBlur4789" />
    </filter>
    <filter
       inkscape:collect="always"
       id="filter4791"
       x="-3.2510204"
       width="7.5020409"
       y="-1.1572026"
       height="3.3144052"
       color-interpolation-filters="sRGB">
      <feGaussianBlur
         inkscape:collect="always"
         stdDeviation="2.3664792"
         id="feGaussianBlur4793" />
    </filter>
    <filter
       inkscape:collect="always"
       id="filter4795"
       x="-2.1732311"
       width="5.3464622"
       y="-1.6205987"
       height="4.2411976"
       color-interpolation-filters="sRGB">
      <feGaussianBlur
         inkscape:collect="always"
         stdDeviation="2.3664792"
         id="feGaussianBlur4797" />
    </filter>
    <filter
       inkscape:collect="always"
       id="filter4799"
       x="-3.2510204"
       width="7.5020409"
       y="-1.157179"
       height="3.314358"
       color-interpolation-filters="sRGB">
      <feGaussianBlur
         inkscape:collect="always"
         stdDeviation="2.3664792"
         id="feGaussianBlur4801" />
    </filter>
    <filter
       inkscape:collect="always"
       id="filter4803"
       x="-0.25455624"
       width="1.5091125"
       y="-0.19550477"
       height="1.3910094"
       color-interpolation-filters="sRGB">
      <feGaussianBlur
         inkscape:collect="always"
         stdDeviation="2.3664792"
         id="feGaussianBlur4805" />
    </filter>
    <radialGradient
       inkscape:collect="always"
       xlink:href="#linearGradient6312"
       id="radialGradient6310"
       gradientUnits="userSpaceOnUse"
       gradientTransform="matrix(2.0909084,-0.02483536,0.01734788,1.9366489,-372.49615,-274.98818)"
       cx="336.75302"
       cy="318.15387"
       fx="336.75302"
       fy="318.15387"
       r="94.285713" />
    <linearGradient
       id="linearGradient6312">
      <stop
         id="stop6314"
         offset="0"
         style="stop-color:#000000;stop-opacity:0.50458717;" />
      <stop
         id="stop6316"
         offset="1"
         style="stop-color:#000000;stop-opacity:0;" />
    </linearGradient>
    <radialGradient
       inkscape:collect="always"
       xlink:href="#linearGradient6332"
       id="radialGradient6338"
       cx="52.149124"
       cy="49.239834"
       fx="52.149124"
       fy="49.239834"
       r="28.41054"
       gradientTransform="matrix(0.43991544,-0.0086258,0.0088889,0.45333334,28.770231,27.367603)"
       gradientUnits="userSpaceOnUse" />
    <linearGradient
       id="linearGradient6332">
      <stop
         style="stop-color:#cdbb00;stop-opacity:0.96428573;"
         offset="0"
         id="stop6334" />
      <stop
         style="stop-color:#cd1e00;stop-opacity:1;"
         offset="1"
         id="stop6336" />
    </linearGradient>
    <radialGradient
       inkscape:collect="always"
       xlink:href="#linearGradient6296"
       id="radialGradient6302"
       cx="337.61908"
       cy="125.21444"
       fx="337.61908"
       fy="125.21444"
       r="94.285713"
       gradientTransform="matrix(2.0909647,-0.01744809,0.00724636,1.1514849,-369.23786,-27.580194)"
       gradientUnits="userSpaceOnUse" />
    <linearGradient
       id="linearGradient6296">
      <stop
         style="stop-color:#ffffff;stop-opacity:1;"
         offset="0"
         id="stop6298" />
      <stop
         style="stop-color:#ffd000;stop-opacity:0.6339286;"
         offset="1"
         id="stop6300" />
    </linearGradient>
    <radialGradient
       r="94.285713"
       fy="318.15387"
       fx="336.75302"
       cy="318.15387"
       cx="336.75302"
       gradientTransform="matrix(2.0909084,-0.02483536,0.01734788,1.9366489,-372.49615,-274.98818)"
       gradientUnits="userSpaceOnUse"
       id="radialGradient4897"
       xlink:href="#linearGradient6312"
       inkscape:collect="always" />
    <filter
       inkscape:collect="always"
       id="filter4968"
       x="-0.4218249"
       width="1.8436497"
       y="-0.42339543"
       height="1.8467908"
       color-interpolation-filters="sRGB">
      <feGaussianBlur
         inkscape:collect="always"
         stdDeviation="2.0802034"
         id="feGaussianBlur4970" />
    </filter>
    <linearGradient
       inkscape:collect="always"
       xlink:href="#linearGradient5805"
       id="linearGradient5065"
       gradientUnits="userSpaceOnUse"
       gradientTransform="matrix(0.12673142,0.07926318,-0.13291357,0.21251136,156.45034,820.40165)"
       x1="107.33379"
       y1="1059.6093"
       x2="106.93253"
       y2="962.88721" />
    <radialGradient
       inkscape:collect="always"
       xlink:href="#linearGradient5827"
       id="radialGradient5067"
       gradientUnits="userSpaceOnUse"
       gradientTransform="matrix(0.12673142,0.07926318,-0.09743262,0.15578197,120.8292,877.35518)"
       cx="135.43362"
       cy="1008.0847"
       fx="135.43362"
       fy="1008.0847"
       r="9.3695955" />
    <radialGradient
       inkscape:collect="always"
       xlink:href="#linearGradient5827"
       id="radialGradient5069"
       gradientUnits="userSpaceOnUse"
       gradientTransform="matrix(0.12673142,0.07926318,-0.11376548,0.18189608,137.19238,851.19259)"
       cx="186.9371"
       cy="1007.8022"
       fx="186.9371"
       fy="1007.8022"
       r="10.402095" />
    <linearGradient
       inkscape:collect="always"
       xlink:href="#linearGradient5847"
       id="linearGradient5071"
       gradientUnits="userSpaceOnUse"
       gradientTransform="matrix(0.12673142,0.07926318,-0.13291358,0.21251137,156.45033,820.40167)"
       x1="78.791893"
       y1="1081.5801"
       x2="74.612724"
       y2="1004.8085" />
    <linearGradient
       inkscape:collect="always"
       xlink:href="#linearGradient5805"
       id="linearGradient5073"
       gradientUnits="userSpaceOnUse"
       gradientTransform="matrix(-0.12673142,-0.07926318,-0.13291357,0.21251136,159.14383,822.08628)"
       x1="107.33379"
       y1="1059.6093"
       x2="106.93253"
       y2="962.88721" />
    <radialGradient
       inkscape:collect="always"
       xlink:href="#linearGradient5827"
       id="radialGradient5075"
       gradientUnits="userSpaceOnUse"
       gradientTransform="matrix(-0.12673142,-0.07926318,-0.09743262,0.15578197,123.52269,879.0398)"
       cx="135.43362"
       cy="1008.0847"
       fx="135.43362"
       fy="1008.0847"
       r="9.3695955" />
    <radialGradient
       inkscape:collect="always"
       xlink:href="#linearGradient5827"
       id="radialGradient5077"
       gradientUnits="userSpaceOnUse"
       gradientTransform="matrix(-0.12673142,-0.07926318,-0.11376548,0.18189608,139.88588,852.87722)"
       cx="186.9371"
       cy="1007.8022"
       fx="186.9371"
       fy="1007.8022"
       r="10.402095" />
    <linearGradient
       inkscape:collect="always"
       xlink:href="#linearGradient5847"
       id="linearGradient5079"
       gradientUnits="userSpaceOnUse"
       gradientTransform="matrix(-0.12673142,-0.07926318,-0.13291358,0.21251137,159.14382,822.08629)"
       x1="78.791893"
       y1="1081.5801"
       x2="74.612724"
       y2="1004.8085" />
    <linearGradient
       inkscape:collect="always"
       xlink:href="#linearGradient5805"
       id="linearGradient5107"
       gradientUnits="userSpaceOnUse"
       gradientTransform="matrix(0.06372918,0.04241104,-0.06683798,0.11370764,63.870951,1135.1255)"
       x1="107.33379"
       y1="1059.6093"
       x2="106.93253"
       y2="962.88721" />
    <radialGradient
       inkscape:collect="always"
       xlink:href="#linearGradient5827"
       id="radialGradient5109"
       gradientUnits="userSpaceOnUse"
       gradientTransform="matrix(0.06372918,0.04241104,-0.04899574,0.08335366,45.958217,1165.5994)"
       cx="135.43362"
       cy="1008.0847"
       fx="135.43362"
       fy="1008.0847"
       r="9.3695955" />
    <radialGradient
       inkscape:collect="always"
       xlink:href="#linearGradient5827"
       id="radialGradient5111"
       gradientUnits="userSpaceOnUse"
       gradientTransform="matrix(0.06372918,0.04241104,-0.05720902,0.09732643,54.186738,1151.6006)"
       cx="186.9371"
       cy="1007.8022"
       fx="186.9371"
       fy="1007.8022"
       r="10.402095" />
    <linearGradient
       inkscape:collect="always"
       xlink:href="#linearGradient5847"
       id="linearGradient5113"
       gradientUnits="userSpaceOnUse"
       gradientTransform="matrix(0.06372918,0.04241104,-0.06683799,0.11370765,63.870947,1135.1255)"
       x1="78.791893"
       y1="1081.5801"
       x2="74.612724"
       y2="1004.8085" />
    <linearGradient
       inkscape:collect="always"
       xlink:href="#linearGradient5805"
       id="linearGradient5115"
       gradientUnits="userSpaceOnUse"
       gradientTransform="matrix(-0.06372918,-0.04241104,-0.06683798,0.11370764,65.22542,1136.0268)"
       x1="107.33379"
       y1="1059.6093"
       x2="106.93253"
       y2="962.88721" />
    <radialGradient
       inkscape:collect="always"
       xlink:href="#linearGradient5827"
       id="radialGradient5117"
       gradientUnits="userSpaceOnUse"
       gradientTransform="matrix(-0.06372918,-0.04241104,-0.04899574,0.08335366,47.312689,1166.5007)"
       cx="135.43362"
       cy="1008.0847"
       fx="135.43362"
       fy="1008.0847"
       r="9.3695955" />
    <radialGradient
       inkscape:collect="always"
       xlink:href="#linearGradient5827"
       id="radialGradient5119"
       gradientUnits="userSpaceOnUse"
       gradientTransform="matrix(-0.06372918,-0.04241104,-0.05720902,0.09732643,55.541214,1152.5019)"
       cx="186.9371"
       cy="1007.8022"
       fx="186.9371"
       fy="1007.8022"
       r="10.402095" />
    <linearGradient
       inkscape:collect="always"
       xlink:href="#linearGradient5847"
       id="linearGradient5121"
       gradientUnits="userSpaceOnUse"
       gradientTransform="matrix(-0.06372918,-0.04241104,-0.06683799,0.11370765,65.225415,1136.0268)"
       x1="78.791893"
       y1="1081.5801"
       x2="74.612724"
       y2="1004.8085" />
    <radialGradient
       inkscape:collect="always"
       xlink:href="#linearGradient6312"
       id="radialGradient5123"
       gradientUnits="userSpaceOnUse"
       gradientTransform="matrix(2.0909084,-0.02483536,0.01734788,1.9366489,-372.49615,-274.98818)"
       cx="336.75302"
       cy="318.15387"
       fx="336.75302"
       fy="318.15387"
       r="94.285713" />
    <radialGradient
       inkscape:collect="always"
       xlink:href="#linearGradient6332"
       id="radialGradient5125"
       gradientUnits="userSpaceOnUse"
       gradientTransform="matrix(0.43991544,-0.0086258,0.0088889,0.45333334,28.770231,27.367603)"
       cx="52.149124"
       cy="49.239834"
       fx="52.149124"
       fy="49.239834"
       r="28.41054" />
    <radialGradient
       inkscape:collect="always"
       xlink:href="#linearGradient6296"
       id="radialGradient5127"
       gradientUnits="userSpaceOnUse"
       gradientTransform="matrix(2.0909647,-0.01744809,0.00724636,1.1514849,-369.23786,-27.580194)"
       cx="337.61908"
       cy="125.21444"
       fx="337.61908"
       fy="125.21444"
       r="94.285713" />
    <radialGradient
       inkscape:collect="always"
       xlink:href="#linearGradient6312"
       id="radialGradient5144"
       gradientUnits="userSpaceOnUse"
       gradientTransform="matrix(1.0514509,-0.01328856,0.0087237,1.0362353,-245.13907,1736.3359)"
       cx="336.75302"
       cy="318.15387"
       fx="336.75302"
       fy="318.15387"
       r="94.285713" />
    <radialGradient
       inkscape:collect="always"
       xlink:href="#linearGradient6332"
       id="radialGradient5146"
       gradientUnits="userSpaceOnUse"
       gradientTransform="matrix(0.22121941,-0.00461537,0.00446994,0.24256333,-79.03857,857.9741)"
       cx="52.149124"
       cy="49.239834"
       fx="52.149124"
       fy="49.239834"
       r="28.41054" />
    <radialGradient
       inkscape:collect="always"
       xlink:href="#linearGradient6296"
       id="radialGradient5148"
       gradientUnits="userSpaceOnUse"
       gradientTransform="matrix(1.0514793,-0.00933588,0.00364396,0.6161206,-243.16578,1868.7156)"
       cx="337.61908"
       cy="125.21444"
       fx="337.61908"
       fy="125.21444"
       r="94.285713" />
    <radialGradient
       inkscape:collect="always"
       xlink:href="#linearGradient5156"
       id="radialGradient5162"
       gradientUnits="userSpaceOnUse"
       gradientTransform="matrix(1.0514793,-0.00933588,0.00364396,0.6161206,-243.16578,1868.7156)"
       cx="337.61908"
       cy="125.21444"
       fx="337.61908"
       fy="125.21444"
       r="94.285713" />
    <filter
       inkscape:collect="always"
       id="filter5231"
       x="-0.017870137"
       width="1.0357403"
       y="-0.1261096"
       height="1.2522192"
       color-interpolation-filters="sRGB">
      <feGaussianBlur
         inkscape:collect="always"
         stdDeviation="0.41465479"
         id="feGaussianBlur5233" />
    </filter>
    <filter
       inkscape:collect="always"
       id="filter5263"
       x="-0.03805298"
       width="1.076106"
       y="-0.11669519"
       height="1.2333905"
       color-interpolation-filters="sRGB">
      <feGaussianBlur
         inkscape:collect="always"
         stdDeviation="0.81459638"
         id="feGaussianBlur5265" />
    </filter>
    <filter
       inkscape:collect="always"
       id="filter3952"
       x="-0.06467817"
       width="1.1293563"
       y="-0.13254385"
       height="1.2650877"
       color-interpolation-filters="sRGB">
      <feGaussianBlur
         inkscape:collect="always"
         stdDeviation="0.74124563"
         id="feGaussianBlur3954" />
    </filter>
  </defs>
  <sodipodi:namedview
     id="base"
     pagecolor="#ffffff"
     bordercolor="#666666"
     borderopacity="1.0"
     inkscape:pageopacity="0.0"
     inkscape:pageshadow="2"
     inkscape:zoom="1.979899"
     inkscape:cx="86.454201"
     inkscape:cy="13.638015"
     inkscape:document-units="px"
     inkscape:current-layer="layer1"
     showgrid="false"
     inkscape:window-width="1137"
     inkscape:window-height="919"
     inkscape:window-x="7"
     inkscape:window-y="115"
     inkscape:window-maximized="0" />
  <metadata
     id="metadata7">
    <rdf:RDF>
      <cc:Work
         rdf:about="">
        <dc:format>image/svg+xml</dc:format>
        <dc:type
           rdf:resource="http://purl.org/dc/dcmitype/StillImage" />
        <dc:title></dc:title>
      </cc:Work>
    </rdf:RDF>
  </metadata>
  <g
     inkscape:label="Layer 1"
     inkscape:groupmode="layer"
     id="layer1"
     transform="translate(0,-932.36218)">
    <rect
       style="fill:#8dd3fc;fill-opacity:1;stroke:#000000;stroke-width:1.32685828;stroke-opacity:1"
       id="rect3132"
       width="178.67314"
       height="118.67314"
       x="0.66342914"
       y="933.02557"
       ry="9.651185"
       inkscape:export-xdpi="720"
       inkscape:export-ydpi="720"
       rx="8.1359568" />
    <g
       id="g4807"
       transform="matrix(1.9885933,0,0,1.8689278,32.478823,-923.70623)">
      <path
         style="fill:#000000;fill-opacity:1;stroke:#000000;stroke-width:0.14662938px;stroke-linecap:butt;stroke-linejoin:miter;stroke-opacity:1;filter:url(#filter4759)"
         d="m 15.843155,1046.5667 c 0,0 6.986852,-10.6715 8.493901,-11.0827 1.507049,-0.4113 5.318005,-0.5095 6.414441,0.4019 1.879618,1.3604 4.686475,5.7658 6.993978,5.8034 1.232956,-0.056 2.601082,-0.3286 3.1807,0.4099 0.579675,0.7385 0.575981,2.9925 -0.544621,3.1189 -1.120602,0.1264 -4.130988,1.0263 -5.448426,0.052 -1.31738,-0.9745 -5.397643,-3.5264 -5.397643,-3.5264 0,0 2.838863,2.4653 3.246977,2.6454 0.408273,0.1799 2.087025,1.8606 3.477576,1.8704 1.351189,0.01 4.515079,0.8519 5.809041,0.3212 1.398139,-0.5736 4.685879,-1.0615 5.434551,-0.5932 0.748672,0.4682 1.585478,2.0445 0.775205,2.5907 -0.810221,0.546 -2.951234,1.3881 -3.768764,1.7793 -0.817478,0.3911 -6.428893,1.6195 -8.695419,1.33 -1.883631,-0.2406 -6.675293,-3.6485 -8.022903,-4.4914 -1.347609,-0.8428 -3.011556,-3.0117 -4.025907,-1.3899 -1.014351,1.6218 -2.374055,3.6293 -2.273815,4.2184 0.100245,0.5891 -5.648978,-3.4576 -5.648978,-3.4576 z"
         id="path3631"
         inkscape:connector-curvature="0"
         sodipodi:nodetypes="csccssscssssssssssc" />
      <path
         style="fill:#000000;fill-opacity:1;stroke:#000000;stroke-width:0.14662938px;stroke-linecap:butt;stroke-linejoin:miter;stroke-opacity:1;filter:url(#filter4763)"
         d="m 41.19062,1043.0919 c 0,0 -1.235311,-0.7726 -2.289447,0 -1.054242,0.7697 -0.472217,2.337 -0.472217,2.337 0,0 2.218235,0.034 2.552787,-0.5845 0.334412,-0.618 0.208877,-1.7494 0.208877,-1.7494 z"
         id="path3633"
         inkscape:connector-curvature="0" />
      <path
         style="fill:#000000;fill-opacity:1;stroke:#000000;stroke-width:0.14662938px;stroke-linecap:butt;stroke-linejoin:miter;stroke-opacity:1;filter:url(#filter4767)"
         d="m 48.555264,1047.6245 c 0,0 -1.400704,-0.425 -3.001933,0.3034 -1.601229,0.7284 -1.161679,2.357 -1.161679,2.357 l 4.057372,-1.8245 z"
         id="path3635"
         inkscape:connector-curvature="0" />
      <path
         inkscape:connector-curvature="0"
         id="path3637"
         d="m 41.19062,1043.0919 c 0,0 -1.235311,-0.7726 -2.289447,0 -1.054242,0.7697 -0.472217,2.337 -0.472217,2.337 0,0 2.218235,0.034 2.552734,-0.5844 0.334465,-0.6181 0.20893,-1.7495 0.20893,-1.7495 z"
         style="fill:#000000;fill-opacity:1;stroke:none;filter:url(#filter4771)" />
      <path
         inkscape:connector-curvature="0"
         id="path3639"
         d="m 48.555264,1047.6245 c 0,0 -1.400757,-0.4249 -3.001933,0.3034 -1.601229,0.7284 -1.161733,2.357 -1.161733,2.357 l 4.057426,-1.8245 z"
         style="fill:#000000;fill-opacity:1;stroke:none;filter:url(#filter4775)" />
      <path
         sodipodi:nodetypes="csccssscssssssssssc"
         inkscape:connector-curvature="0"
         id="path3641"
         d="m 15.843155,1046.5667 c 0,0 6.986799,-10.6714 8.493848,-11.0826 1.507048,-0.4113 5.318005,-0.5095 6.414494,0.4018 1.879564,1.3605 4.686475,5.7658 6.993978,5.8034 1.232956,-0.056 2.601029,-0.3285 3.1807,0.4099 0.579622,0.7386 0.575981,2.9925 -0.544621,3.1189 -1.120602,0.1264 -4.130988,1.0263 -5.448427,0.052 -1.317379,-0.9745 -5.397642,-3.5264 -5.397642,-3.5264 0,0 2.83881,2.4654 3.246977,2.6454 0.408273,0.1799 2.086972,1.8607 3.477575,1.8704 1.35119,0.01 4.51508,0.8519 5.809042,0.3212 1.398086,-0.5735 4.685879,-1.0615 5.434551,-0.5932 0.748672,0.4682 1.585478,2.0445 0.775205,2.5907 -0.810221,0.546 -2.951287,1.3882 -3.768764,1.7793 -0.817478,0.3911 -6.428947,1.6196 -8.695419,1.33 -1.883632,-0.2406 -6.675347,-3.6484 -8.022956,-4.4913 -1.347609,-0.8428 -3.011503,-3.0118 -4.025907,-1.3899 -1.014298,1.6217 -2.374002,3.6292 -2.273762,4.2183 0.100245,0.5891 -5.648978,-3.4576 -5.648978,-3.4576 z"
         style="fill:#000000;fill-opacity:1;stroke:none;filter:url(#filter4779)" />
      <path
         sodipodi:nodetypes="csccssscssssssssssc"
         inkscape:connector-curvature="0"
         id="path3643"
         d="m 17.320478,1047.4907 c 0,0 6.537647,-10.9525 6.247883,-12.4875 -0.289764,-1.535 -1.869246,-5.0047 -3.16856,-5.5917 -2.045805,-1.0947 -7.235264,-1.6906 -8.278928,-3.7489 -0.48899,-1.1332 -0.842815,-2.4826 -1.760536,-2.6806 -0.9176667,-0.198 -2.9427787,0.7918 -2.5660367,1.8547 0.37674,1.0629 0.88511,4.1635 2.3377627,4.9217 1.452707,0.758 5.532969,3.31 5.532969,3.31 0,0 -3.459065,-1.4737 -3.799622,-1.7618 -0.3404,-0.2884 -2.5863267,-1.0623 -3.2036397,-2.3084 -0.599902,-1.2107 -2.741967,-3.6869 -2.831053,-5.0826 -0.09612,-1.5082 -1.096281,-4.6779 -1.844953,-5.1461 -0.748671,-0.4683 -2.532219,-0.5308 -2.668685,0.4367 -0.136416,0.9675 0.04345,3.2611 0.04946,4.1674 0.0061,0.9062 1.357297,6.4893 2.609527,8.4006 1.04061,1.5884 6.2018677,4.4054 7.5494777,5.2483 1.34761,0.8428 4.02596,1.3898 3.01161,3.0116 -1.014351,1.6218 -2.224328,3.7229 -2.797886,3.8906 -0.573561,0.1677 5.581102,3.5661 5.581102,3.5661 z"
         style="fill:#000000;fill-opacity:1;stroke:#000000;stroke-width:0.14662938px;stroke-linecap:butt;stroke-linejoin:miter;stroke-opacity:1;filter:url(#filter4783)" />
      <path
         inkscape:connector-curvature="0"
         id="path3645"
         d="m 9.3520353,1023.1787 c 0,0 1.2353097,0.7726 1.0047117,2.0572 -0.230704,1.2848 -1.8946917,1.4474 -1.8946917,1.4474 0,0 -1.001057,-1.9798 -0.59164,-2.5512 0.409309,-0.5711 1.48162,-0.9534 1.48162,-0.9534 z"
         style="fill:#000000;fill-opacity:1;stroke:#000000;stroke-width:0.14662938px;stroke-linecap:butt;stroke-linejoin:miter;stroke-opacity:1;filter:url(#filter4787)" />
      <path
         inkscape:connector-curvature="0"
         id="path3647"
         d="m 2.0535673,1018.5403 c 0,0 0.995048,1.0735 1.040895,2.832 0.04585,1.7585 -1.610884,2.076 -1.610884,2.076 l -0.135187,-4.4466 z"
         style="fill:#000000;fill-opacity:1;stroke:#000000;stroke-width:0.14662938px;stroke-linecap:butt;stroke-linejoin:miter;stroke-opacity:1;filter:url(#filter4791)" />
      <path
         style="fill:#000000;fill-opacity:1;stroke:none;filter:url(#filter4795)"
         d="m 9.3520353,1023.1787 c 0,0 1.2353097,0.7726 1.0047117,2.0572 -0.230704,1.2848 -1.8946917,1.4474 -1.8946917,1.4474 0,0 -1.001057,-1.9798 -0.591693,-2.5511 0.409362,-0.5712 1.481673,-0.9535 1.481673,-0.9535 z"
         id="path3649"
         inkscape:connector-curvature="0" />
      <path
         style="fill:#000000;fill-opacity:1;stroke:none;filter:url(#filter4799)"
         d="m 2.0535673,1018.5403 c 0,0 0.994995,1.0736 1.040895,2.832 0.04585,1.7585 -1.610937,2.0761 -1.610937,2.0761 l -0.135134,-4.4467 z"
         id="path3651"
         inkscape:connector-curvature="0" />
      <path
         style="fill:#000000;fill-opacity:1;stroke:none;filter:url(#filter4803)"
         d="m 17.320477,1047.4907 c 0,0 6.537595,-10.9524 6.247831,-12.4874 -0.289764,-1.535 -1.869246,-5.0047 -3.168507,-5.5918 -2.045858,-1.0946 -7.235264,-1.6906 -8.278929,-3.7489 -0.488989,-1.1332 -0.842867,-2.4825 -1.760535,-2.6806 -0.9177207,-0.1979 -2.9427787,0.7918 -2.5660377,1.8547 0.376741,1.0629 0.885111,4.1635 2.3377637,4.9217 1.452707,0.758 5.532969,3.31 5.532969,3.31 0,0 -3.459118,-1.4736 -3.799622,-1.7618 -0.3404,-0.2884 -2.5863797,-1.0622 -3.2036397,-2.3084 -0.599902,-1.2107 -2.741967,-3.6869 -2.831053,-5.0826 -0.09617,-1.5081 -1.096281,-4.6779 -1.844953,-5.1461 -0.748671,-0.4683 -2.532219,-0.5308 -2.668685,0.4367 -0.136416,0.9675 0.0434,3.2612 0.04946,4.1674 0.0061,0.9062 1.357244,6.4894 2.609527,8.4006 1.04061,1.5884 6.2018147,4.4055 7.5494247,5.2483 1.347609,0.8429 4.026013,1.3898 3.01161,3.0117 -1.014298,1.6217 -2.224275,3.7228 -2.797833,3.8905 -0.573561,0.1677 5.581102,3.5661 5.581102,3.5661 z"
         id="path3653"
         inkscape:connector-curvature="0"
         sodipodi:nodetypes="csccssscssssssssssc" />
    </g>
    <path
       transform="matrix(0.28856091,0,0,0.23547712,7.6993979,918.74953)"
       d="m 431.42857,220.93361 a 94.285713,108.57143 0 1 1 -188.57143,0 94.285713,108.57143 0 1 1 188.57143,0 z"
       sodipodi:ry="108.57143"
       sodipodi:rx="94.285713"
       sodipodi:cy="220.93361"
       sodipodi:cx="337.14285"
       id="path5154"
       style="fill:url(#radialGradient5162);fill-opacity:1;stroke:none"
       sodipodi:type="arc" />
    <g
       id="g5007"
       transform="matrix(1.9885933,0,0,1.8689278,33.544139,-925.70866)">
      <path
         sodipodi:nodetypes="csccssscssssssssssc"
         inkscape:connector-curvature="0"
         id="path5799"
         d="m 15.843155,1046.5667 c 0,0 6.986852,-10.6715 8.493901,-11.0827 1.507049,-0.4113 5.318005,-0.5095 6.414441,0.4019 1.879618,1.3604 4.686475,5.7658 6.993978,5.8034 1.232956,-0.056 2.601082,-0.3286 3.1807,0.4099 0.579675,0.7385 0.575981,2.9925 -0.544621,3.1189 -1.120602,0.1264 -4.130988,1.0263 -5.448426,0.052 -1.31738,-0.9745 -5.397643,-3.5264 -5.397643,-3.5264 0,0 2.838863,2.4653 3.246977,2.6454 0.408273,0.1799 2.087025,1.8606 3.477576,1.8704 1.351189,0.01 4.515079,0.8519 5.809041,0.3212 1.398139,-0.5736 4.685879,-1.0615 5.434551,-0.5932 0.748672,0.4682 1.585478,2.0445 0.775205,2.5907 -0.810221,0.546 -2.951234,1.3881 -3.768764,1.7793 -0.817478,0.3911 -6.428893,1.6195 -8.695419,1.33 -1.883631,-0.2406 -6.675293,-3.6485 -8.022903,-4.4914 -1.347609,-0.8428 -3.011556,-3.0117 -4.025907,-1.3899 -1.014351,1.6218 -2.374055,3.6293 -2.273815,4.2184 0.100245,0.5891 -5.648978,-3.4576 -5.648978,-3.4576 z"
         style="fill:url(#linearGradient5107);fill-opacity:1;stroke:#000000;stroke-width:0.14662938px;stroke-linecap:butt;stroke-linejoin:miter;stroke-opacity:1" />
      <path
         inkscape:connector-curvature="0"
         id="path5801"
         d="m 41.19062,1043.0919 c 0,0 -1.235311,-0.7726 -2.289447,0 -1.054242,0.7697 -0.472217,2.337 -0.472217,2.337 0,0 2.218235,0.034 2.552787,-0.5845 0.334412,-0.618 0.208877,-1.7494 0.208877,-1.7494 z"
         style="fill:#ffb3b3;fill-opacity:0.6849315;stroke:#000000;stroke-width:0.14662938px;stroke-linecap:butt;stroke-linejoin:miter;stroke-opacity:1" />
      <path
         inkscape:connector-curvature="0"
         id="path5803"
         d="m 48.555264,1047.6245 c 0,0 -1.400704,-0.425 -3.001933,0.3034 -1.601229,0.7284 -1.161679,2.357 -1.161679,2.357 l 4.057372,-1.8245 z"
         style="fill:#ffb3b3;fill-opacity:0.6849315;stroke:#000000;stroke-width:0.14662938px;stroke-linecap:butt;stroke-linejoin:miter;stroke-opacity:1" />
      <path
         style="fill:url(#radialGradient5109);fill-opacity:1;stroke:none"
         d="m 41.19062,1043.0919 c 0,0 -1.235311,-0.7726 -2.289447,0 -1.054242,0.7697 -0.472217,2.337 -0.472217,2.337 0,0 2.218235,0.034 2.552734,-0.5844 0.334465,-0.6181 0.20893,-1.7495 0.20893,-1.7495 z"
         id="path5813"
         inkscape:connector-curvature="0" />
      <path
         style="fill:url(#radialGradient5111);fill-opacity:1;stroke:none"
         d="m 48.555264,1047.6245 c 0,0 -1.400757,-0.4249 -3.001933,0.3034 -1.601229,0.7284 -1.161733,2.357 -1.161733,2.357 l 4.057426,-1.8245 z"
         id="path5815"
         inkscape:connector-curvature="0" />
      <path
         style="fill:url(#linearGradient5113);fill-opacity:1;stroke:none"
         d="m 15.843155,1046.5667 c 0,0 6.986799,-10.6714 8.493848,-11.0826 1.507048,-0.4113 5.318005,-0.5095 6.414494,0.4018 1.879564,1.3605 4.686475,5.7658 6.993978,5.8034 1.232956,-0.056 2.601029,-0.3285 3.1807,0.4099 0.579622,0.7386 0.575981,2.9925 -0.544621,3.1189 -1.120602,0.1264 -4.130988,1.0263 -5.448427,0.052 -1.317379,-0.9745 -5.397642,-3.5264 -5.397642,-3.5264 0,0 2.83881,2.4654 3.246977,2.6454 0.408273,0.1799 2.086972,1.8607 3.477575,1.8704 1.35119,0.01 4.51508,0.8519 5.809042,0.3212 1.398086,-0.5735 4.685879,-1.0615 5.434551,-0.5932 0.748672,0.4682 1.585478,2.0445 0.775205,2.5907 -0.810221,0.546 -2.951287,1.3882 -3.768764,1.7793 -0.817478,0.3911 -6.428947,1.6196 -8.695419,1.33 -1.883632,-0.2406 -6.675347,-3.6484 -8.022956,-4.4913 -1.347609,-0.8428 -3.011503,-3.0118 -4.025907,-1.3899 -1.014298,1.6217 -2.374002,3.6292 -2.273762,4.2183 0.100245,0.5891 -5.648978,-3.4576 -5.648978,-3.4576 z"
         id="path5837"
         inkscape:connector-curvature="0"
         sodipodi:nodetypes="csccssscssssssssssc" />
      <path
         style="fill:url(#linearGradient5115);fill-opacity:1;stroke:#000000;stroke-width:0.14662938px;stroke-linecap:butt;stroke-linejoin:miter;stroke-opacity:1"
         d="m 17.320478,1047.4907 c 0,0 6.537647,-10.9525 6.247883,-12.4875 -0.289764,-1.535 -1.869246,-5.0047 -3.16856,-5.5917 -2.045805,-1.0947 -7.235264,-1.6906 -8.278928,-3.7489 -0.48899,-1.1332 -0.842815,-2.4826 -1.760536,-2.6806 -0.9176667,-0.198 -2.9427787,0.7918 -2.5660367,1.8547 0.37674,1.0629 0.88511,4.1635 2.3377627,4.9217 1.452707,0.758 5.532969,3.31 5.532969,3.31 0,0 -3.459065,-1.4737 -3.799622,-1.7618 -0.3404,-0.2884 -2.5863267,-1.0623 -3.2036397,-2.3084 -0.599902,-1.2107 -2.741967,-3.6869 -2.831053,-5.0826 -0.09612,-1.5082 -1.096281,-4.6779 -1.844953,-5.1461 -0.748671,-0.4683 -2.532219,-0.5308 -2.668685,0.4367 -0.136416,0.9675 0.04345,3.2611 0.04946,4.1674 0.0061,0.9062 1.357297,6.4893 2.609527,8.4006 1.04061,1.5884 6.2018677,4.4054 7.5494777,5.2483 1.34761,0.8428 4.02596,1.3898 3.01161,3.0116 -1.014351,1.6218 -2.224328,3.7229 -2.797886,3.8906 -0.573561,0.1677 5.581102,3.5661 5.581102,3.5661 z"
         id="path5874"
         inkscape:connector-curvature="0"
         sodipodi:nodetypes="csccssscssssssssssc" />
      <path
         style="fill:#ffb3b3;fill-opacity:0.6849315;stroke:#000000;stroke-width:0.14662938px;stroke-linecap:butt;stroke-linejoin:miter;stroke-opacity:1"
         d="m 9.3520353,1023.1787 c 0,0 1.2353097,0.7726 1.0047117,2.0572 -0.230704,1.2848 -1.8946917,1.4474 -1.8946917,1.4474 0,0 -1.001057,-1.9798 -0.59164,-2.5512 0.409309,-0.5711 1.48162,-0.9534 1.48162,-0.9534 z"
         id="path5876"
         inkscape:connector-curvature="0" />
      <path
         style="fill:#ffb3b3;fill-opacity:0.6849315;stroke:#000000;stroke-width:0.14662938px;stroke-linecap:butt;stroke-linejoin:miter;stroke-opacity:1"
         d="m 2.0535673,1018.5403 c 0,0 0.995048,1.0735 1.040895,2.832 0.04585,1.7585 -1.610884,2.076 -1.610884,2.076 l -0.135187,-4.4466 z"
         id="path5878"
         inkscape:connector-curvature="0" />
      <path
         inkscape:connector-curvature="0"
         id="path5880"
         d="m 9.3520353,1023.1787 c 0,0 1.2353097,0.7726 1.0047117,2.0572 -0.230704,1.2848 -1.8946917,1.4474 -1.8946917,1.4474 0,0 -1.001057,-1.9798 -0.591693,-2.5511 0.409362,-0.5712 1.481673,-0.9535 1.481673,-0.9535 z"
         style="fill:url(#radialGradient5117);fill-opacity:1;stroke:none" />
      <path
         inkscape:connector-curvature="0"
         id="path5882"
         d="m 2.0535673,1018.5403 c 0,0 0.994995,1.0736 1.040895,2.832 0.04585,1.7585 -1.610937,2.0761 -1.610937,2.0761 l -0.135134,-4.4467 z"
         style="fill:url(#radialGradient5119);fill-opacity:1;stroke:none" />
      <path
         sodipodi:nodetypes="csccssscssssssssssc"
         inkscape:connector-curvature="0"
         id="path5884"
         d="m 17.320477,1047.4907 c 0,0 6.537595,-10.9524 6.247831,-12.4874 -0.289764,-1.535 -1.869246,-5.0047 -3.168507,-5.5918 -2.045858,-1.0946 -7.235264,-1.6906 -8.278929,-3.7489 -0.488989,-1.1332 -0.842867,-2.4825 -1.760535,-2.6806 -0.9177207,-0.1979 -2.9427787,0.7918 -2.5660377,1.8547 0.376741,1.0629 0.885111,4.1635 2.3377637,4.9217 1.452707,0.758 5.532969,3.31 5.532969,3.31 0,0 -3.459118,-1.4736 -3.799622,-1.7618 -0.3404,-0.2884 -2.5863797,-1.0622 -3.2036397,-2.3084 -0.599902,-1.2107 -2.741967,-3.6869 -2.831053,-5.0826 -0.09617,-1.5081 -1.096281,-4.6779 -1.844953,-5.1461 -0.748671,-0.4683 -2.532219,-0.5308 -2.668685,0.4367 -0.136416,0.9675 0.0434,3.2612 0.04946,4.1674 0.0061,0.9062 1.357244,6.4894 2.609527,8.4006 1.04061,1.5884 6.2018147,4.4055 7.5494247,5.2483 1.347609,0.8429 4.026013,1.3898 3.01161,3.0117 -1.014298,1.6217 -2.224275,3.7228 -2.797833,3.8905 -0.573561,0.1677 5.581102,3.5661 5.581102,3.5661 z"
         style="fill:url(#linearGradient5121);fill-opacity:1;stroke:none" />
    </g>
    <g
       id="g4946"
       style="filter:url(#filter4968)"
       transform="matrix(4.6139918,0,0,4.3363405,-55.223482,-3438.9722)">
      <path
         transform="matrix(0.0625404,0,0,0.05430319,13.377725,1007.3291)"
         d="m 431.42857,220.93361 c 0,59.96234 -42.21316,108.57143 -94.28572,108.57143 -52.07256,0 -94.28571,-48.60909 -94.28571,-108.57143 0,-59.96234 42.21315,-108.57143 94.28571,-108.57143 52.07256,0 94.28572,48.60909 94.28572,108.57143 z"
         sodipodi:ry="108.57143"
         sodipodi:rx="94.285713"
         sodipodi:cy="220.93361"
         sodipodi:cx="337.14285"
         id="path4938"
         style="fill:#000000;fill-opacity:1;stroke:none"
         sodipodi:type="arc" />
      <path
         sodipodi:type="arc"
         style="fill:#000000;fill-opacity:1;stroke:none"
         id="path4940"
         sodipodi:cx="52.149124"
         sodipodi:cy="49.239834"
         sodipodi:rx="28.41054"
         sodipodi:ry="28.284271"
         d="m 80.559664,49.239834 c 0,15.620971 -12.719832,28.284271 -28.41054,28.284271 -15.690708,0 -28.410539,-12.6633 -28.410539,-28.284271 0,-15.620972 12.719831,-28.284271 28.410539,-28.284271 15.690708,0 28.41054,12.663299 28.41054,28.284271 z"
         transform="matrix(0.11793332,0,0,0.11791549,28.285726,1013.4307)" />
      <path
         style="fill:#000000;fill-opacity:1;stroke:#ffe4ff;stroke-width:0.13839px;stroke-linecap:butt;stroke-linejoin:miter;stroke-opacity:0.46560848"
         d="m 32.75674,1018.1105 c 0.021,-0.097 0.082,-0.1782 0.06873,-0.2971 0.049,-0.1779 -0.106218,-0.2537 -0.206178,-0.3085 -0.154514,0 -0.238796,-0.1037 -0.331174,-0.1779 -0.09586,-0.026 -0.111434,-0.1571 -0.08118,-0.2581 0.03329,-0.066 0.09178,-0.1395 0.18327,-0.1817 0.100119,-0.025 0.264679,-0.017 0.320723,0.036 0.05647,0.034 2.85e-4,0.2199 0.10947,0.2336 0.07593,0.021 0.08469,0.1628 0.15398,0.2145 0.03723,0.089 0.19046,0.1024 0.320252,0.091 0.05623,-0.069 0.192595,-0.1126 0.196141,-0.2442 0.0037,-0.1105 -0.112098,-0.1518 -0.19567,-0.2343 -0.07813,-0.046 -0.101275,-0.1659 -0.132458,-0.2578 -0.06132,-0.06 -0.08197,-0.2435 -0.0279,-0.3478 0.07753,-0.1197 0.246112,-0.074 0.377995,-0.085 0.122207,0.015 0.247926,0.1485 0.217633,0.2972 0.01076,0.1452 -0.05606,0.3063 0.04459,0.4228 0.03263,0.05 0.07702,0.1522 0.150135,0.1884 0.105487,0.015 0.355391,0.088 0.309268,-0.1033 0.0071,-0.1336 0.01373,-0.2137 -0.04582,-0.3206 -0.01756,-0.092 -0.124217,-0.1575 -0.148907,-0.2423 -0.03702,-0.07 -0.144282,-0.2219 -0.09164,-0.3512 0.07111,-0.063 0.21539,-0.079 0.332177,-0.085 0.08806,0.068 0.192892,0.062 0.26345,0.1574 0.06388,0.058 0.06987,0.2016 0.10309,0.315 -0.0086,0.1027 0.02778,0.2473 -0.04582,0.3028 -0.03545,0.087 -0.06615,0.2073 -0.04582,0.3149 0.07168,0.079 0.217617,0.059 0.338193,0.073 0.107862,0 0.246855,0.019 0.223071,-0.1333 0.08772,-0.1715 0.005,-0.286 -0.103089,-0.3997 -0.04499,-0.113 -0.07765,-0.3571 0.09164,-0.3754 0.132716,-0.02 0.282464,-0.042 0.412357,-0.012 0.09587,0.1067 0.114166,0.2509 0.217633,0.3875 0.01791,0.1138 0.02474,0.2694 -0.01145,0.3755 0.0049,0.1502 -0.08776,0.1557 -0.224035,0.1454 -0.223601,-0.057 -0.132041,0.2193 -0.05087,0.2906 0.09743,0.1033 0.20283,0.1581 0.349455,0.1575 0.159886,0.044 0.205477,-0.088 0.188901,-0.2365 -0.01969,-0.1291 -0.05784,-0.255 -0.05727,-0.3935 -0.02268,-0.1966 0.265609,-0.1383 0.412383,-0.1706 0.176763,-0.037 0.484884,-0.072 0.446695,0.1952 -0.0074,0.1168 0.02062,0.1961 0.01146,0.3147 -0.102689,0.1244 -0.332751,0.1069 -0.492538,0.1575 -0.102193,0.041 -0.173048,0.1318 -0.230649,0.2416 -0.05119,0.1155 -0.062,0.2623 -0.05571,0.4124 0.0051,0.1285 0.198275,0.2481 0.297814,0.1575 0.110421,-0.067 0.08488,-0.1948 0.148907,-0.2544 0.01542,-0.089 0.07712,-0.1709 0.171815,-0.1938 0.04674,-0.081 0.204042,-0.077 0.240542,-0.024 0.107934,0.049 0.116205,0.1864 0.160361,0.2786 0.02175,0.1547 -0.10655,0.2443 -0.234923,0.2538 -0.138221,0.028 -0.237574,0.059 -0.303433,0.1217 -0.03556,0.06 -0.09874,0.1225 -0.160361,0.1816 -0.05743,0.068 -0.04565,0.219 0.04387,0.2436 0.08506,0.069 0.232953,0.037 0.27751,-0.061 0.04101,-0.1203 0.197155,-0.1189 0.308616,-0.1579 0.194521,-0.1076 0.261366,0.016 0.343631,0.097 0.0028,0.092 0.110636,0.1406 0.08018,0.2665 0.02682,0.1276 0.04186,0.2959 0,0.4239 -0.10502,0.045 -0.233012,0.05 -0.355086,0.048 -0.154888,0.019 -0.344931,0.056 -0.44672,-0.097 -0.08892,-0.039 -0.239279,-0.1376 -0.332177,-0.097 -0.03687,0.123 -0.128862,0.3461 0.05727,0.3876 0.106655,0.018 0.224698,0.011 0.320915,0.036 0.125035,-0.028 0.152212,0.089 0.240349,0.1574 0.07603,0.076 0.151181,0.2629 0.148907,0.412 2.38e-4,0.1801 0.0019,0.3702 -0.04582,0.5328 -0.08476,0.1115 -0.20716,0.1152 -0.343631,0.1453 -0.121237,0.025 -0.127072,-0.1149 -0.18327,-0.1938 -0.09303,-0.073 -0.112038,-0.1989 -0.103089,-0.3391 -0.0388,-0.095 -0.0671,-0.1989 -0.189286,-0.1817 -0.174616,-0.047 -0.143651,0.1428 -0.223072,0.2543 -0.04607,0.1122 -0.01274,0.2596 -0.02291,0.3876 0.08329,0.061 0.122835,0.2499 0.196436,0.3553 0.02231,0.1542 0.113934,0.2948 0.06702,0.4562 -0.07343,0.1442 -0.234357,0.2456 -0.323511,0.2843 -0.167167,0.052 -0.342628,-0.1274 -0.352297,-0.2843 -0.0113,-0.1537 -0.02267,-0.2917 -0.14318,-0.3754 -0.108982,-0.1636 -0.304022,-0.1178 -0.463902,-0.1091 -0.104243,0.047 -0.09909,0.1851 -0.103089,0.3028 -0.02933,0.1371 0.07543,0.2104 0.114543,0.315 0.07859,0.115 0.003,0.3261 -0.04582,0.3512 -0.05607,0.1173 -0.174718,0.1209 -0.297814,0.1211 -0.129904,0.072 -0.484438,0.1039 -0.320722,-0.1574 0.04962,-0.1228 0.111652,-0.2309 0.09164,-0.3817 0.0096,-0.1345 -0.02388,-0.2271 -0.06873,-0.3329 -0.07121,-0.065 -0.165149,-0.099 -0.286359,-0.1575 -0.07377,-0.01 -0.242689,-0.09 -0.307814,-0.024 -0.04637,0.1666 -0.03172,0.3654 0.04436,0.5203 0.06707,0.092 0.141749,0.2015 0.137453,0.3334 0.01084,0.1278 -0.184476,0.023 -0.263451,0.091 -0.130679,0.013 -0.265867,0 -0.356875,-0.1034 -0.105901,-0.062 -0.196568,-0.055 -0.227298,-0.1994 0.03244,-0.1765 0.26225,0.064 0.321589,-0.06 0.04005,-0.1963 0.08757,-0.3978 0.09077,-0.5939 -0.02847,-0.06 -0.139342,-0.1804 -0.194725,-0.2301 -0.108757,-0.026 -0.273152,-0.1783 -0.423812,-0.097 -0.160731,0.082 -0.0623,0.2954 -0.125998,0.436 -0.007,0.1162 -0.241117,0.1124 -0.309268,0.073 -0.124704,-0.027 -0.239564,-0.1606 -0.297813,-0.2907 -0.108704,-0.1217 -0.05632,-0.3141 -0.06873,-0.4724 0.0947,-0.051 0.251516,-0.042 0.36654,-0.024 0.17082,0.045 0.263779,-0.019 0.229088,-0.2301 0.03148,-0.1339 0.01162,-0.3063 -0.09164,-0.3755 -0.12485,-0.067 -0.291646,-0.1388 -0.423812,-0.109 -0.122869,0.013 -0.169342,0.1692 -0.251539,0.1877 -0.06225,0.089 -0.211714,0.059 -0.299144,0.033 -0.136671,0.014 -0.1886,-0.1106 -0.170943,-0.2452 0.0033,-0.1736 -0.02161,-0.3806 0.06873,-0.5083 0.124078,-0.07 0.324883,-0.1262 0.481083,-0.109 0.06545,0.066 0.104793,0.2103 0.223457,0.1938 0.108844,0.021 0.18564,-0.033 0.188308,-0.1466 0.0091,-0.099 0.05635,-0.2732 -0.01412,-0.35 -0.01629,-0.07 -0.174539,-0.1186 -0.294552,-0.109 -0.138597,0.037 -0.297965,0.018 -0.44109,0.048 -0.126168,0 -0.21576,-0.06 -0.1889,-0.1938 -0.01064,-0.1587 0.04,-0.3185 0.206178,-0.3633 0.08295,-0.1106 0.298822,-0.067 0.36654,0.024 0.102907,0.063 0.1976,0.1778 0.343824,0.1695 0.131665,0.033 0.182176,-0.078 0.160169,-0.2059 0.01554,-0.1116 -0.0746,-0.202 -0.148907,-0.218 -0.109271,-0.05 -0.241343,-0.056 -0.355086,-0.097 -0.134688,-0.068 -0.235877,-0.092 -0.204942,-0.2904 0.06414,-0.083 0.254061,-0.1187 0.365304,-0.085 0.121639,0.04 0.20273,0.1031 0.319366,0.1612 0.09624,0.058 0.127412,0.1168 0.218989,0.1537 l 0.04582,0 0.05727,0.024 0,0 z"
         id="path4942"
         inkscape:connector-curvature="0"
         inkscape:export-filename="C:\Users\dan\Desktop\Projects\ballbreaker\ballbreaker\Assets\Images\png\path6342.png"
         inkscape:export-xdpi="90"
         inkscape:export-ydpi="90" />
      <path
         sodipodi:type="arc"
         style="fill:#000000;fill-opacity:1;stroke:none"
         id="path4944"
         sodipodi:cx="337.14285"
         sodipodi:cy="220.93361"
         sodipodi:rx="94.285713"
         sodipodi:ry="108.57143"
         d="m 431.42857,220.93361 c 0,59.96234 -42.21316,108.57143 -94.28572,108.57143 -52.07256,0 -94.28571,-48.60909 -94.28571,-108.57143 0,-59.96234 42.21315,-108.57143 94.28571,-108.57143 52.07256,0 94.28572,48.60909 94.28572,108.57143 z"
         transform="matrix(0.0625404,0,0,0.05430319,13.335606,1007.3291)" />
    </g>
    <path
       transform="matrix(0.28856091,0,0,0.23547712,7.8937339,918.74953)"
       d="m 431.42857,220.93361 a 94.285713,108.57143 0 1 1 -188.57143,0 94.285713,108.57143 0 1 1 188.57143,0 z"
       sodipodi:ry="108.57143"
       sodipodi:rx="94.285713"
       sodipodi:cy="220.93361"
       sodipodi:cx="337.14285"
       id="path6308"
       style="fill:url(#radialGradient5144);fill-opacity:1;stroke:none"
       sodipodi:type="arc" />
    <path
       sodipodi:type="arc"
       style="fill:url(#radialGradient5146);fill-opacity:1;stroke:none"
       id="path6318"
       sodipodi:cx="52.149124"
       sodipodi:cy="49.239834"
       sodipodi:rx="28.41054"
       sodipodi:ry="28.284271"
       d="m 80.559664,49.239834 a 28.41054,28.284271 0 1 1 -56.821079,0 28.41054,28.284271 0 1 1 56.821079,0 z"
       transform="matrix(0.54414339,0,0,0.51132171,76.679131,945.20815)" />
    <path
       style="fill:none;stroke:#ffe4ff;stroke-width:0.61902022px;stroke-linecap:butt;stroke-linejoin:miter;stroke-opacity:0.46560848"
       d="m 97.308356,965.50131 c 0.0969,-0.4207 0.37834,-0.7728 0.31711,-1.28825 0.22609,-0.7715 -0.49009,-1.10025 -0.9513,-1.33778 -0.71293,0 -1.1018,-0.44966 -1.52803,-0.77149 -0.4423,-0.11214 -0.51416,-0.68122 -0.37457,-1.11912 0.1536,-0.28633 0.42347,-0.60497 0.84561,-0.78794 0.46195,-0.10839 1.22123,-0.0729 1.47981,0.15699 0.26055,0.14764 0.001,0.95353 0.5051,1.01296 0.35034,0.0915 0.39075,0.7059 0.71046,0.93017 0.17177,0.38592 0.87878,0.44405 1.47764,0.39452 0.259444,-0.2992 0.888634,-0.48816 0.904994,-1.05893 0.0171,-0.4792 -0.51722,-0.65823 -0.902824,-1.01596 -0.36049,-0.1994 -0.46728,-0.71934 -0.61116,-1.11779 -0.28293,-0.26034 -0.37821,-1.05595 -0.12872,-1.50823 0.35772,-0.51918 1.135564,-0.32089 1.744064,-0.36855 0.56387,0.0655 1.14393,0.64384 1.00417,1.28863 0.0496,0.62964 -0.25867,1.32825 0.20573,1.83341 0.15055,0.21681 0.35537,0.66011 0.69272,0.81709 0.48672,0.0654 1.63977,0.38146 1.42696,-0.44797 0.0328,-0.57937 0.0634,-0.92681 -0.21141,-1.3903 -0.081,-0.39901 -0.57313,-0.6829 -0.68705,-1.05071 -0.17083,-0.30352 -0.66573,-0.96213 -0.42284,-1.5228 0.3281,-0.27324 0.99382,-0.34257 1.53267,-0.36875 0.4063,0.29493 0.89,0.26895 1.21556,0.68254 0.29473,0.25156 0.32237,0.87428 0.47565,1.36599 -0.0397,0.44538 0.12817,1.07241 -0.21142,1.31313 -0.16356,0.37713 -0.3052,0.89894 -0.2114,1.36542 0.33073,0.34258 1.00407,0.25586 1.56042,0.31661 0.49767,0 1.13898,0.0823 1.02925,-0.57806 0.40473,-0.74366 0.0231,-1.24023 -0.47566,-1.73325 -0.20759,-0.49003 -0.35828,-1.5484 0.42283,-1.62784 0.61235,-0.086 1.30328,-0.18129 1.90261,-0.0523 0.44234,0.46256 0.52675,1.08789 1.00416,1.68015 0.0825,0.4936 0.11416,1.16827 -0.0529,1.62841 0.0226,0.65132 -0.40492,0.67505 -1.0337,0.63039 -1.03169,-0.24709 -0.60923,0.95109 -0.23471,1.26022 0.44955,0.44797 0.93585,0.68551 1.61238,0.6829 0.73771,0.19082 0.94807,-0.38145 0.87159,-1.02548 -0.0909,-0.55974 -0.26687,-1.10586 -0.26425,-1.70633 -0.10468,-0.85261 1.22553,-0.59974 1.90274,-0.73973 0.81558,-0.16073 2.23725,-0.31229 2.06104,0.84644 -0.0341,0.50649 0.0951,0.85036 0.053,1.36469 -0.47381,0.53938 -1.53531,0.46349 -2.27256,0.68291 -0.47152,0.17755 -0.79845,0.57152 -1.06422,1.04772 -0.2362,0.50069 -0.28607,1.13724 -0.25704,1.78819 0.0235,0.55732 0.91483,1.07593 1.37411,0.6831 0.50948,-0.29063 0.39162,-0.84477 0.68705,-1.10323 0.0711,-0.38594 0.35582,-0.74104 0.79275,-0.84046 0.21566,-0.35118 0.94146,-0.33379 1.10986,-0.10471 0.49801,0.21249 0.53617,0.80831 0.73991,1.20826 0.10035,0.67076 -0.49162,1.05931 -1.08393,1.10042 -0.63775,0.12148 -1.09616,0.25586 -1.40004,0.52779 -0.16408,0.26015 -0.45559,0.53115 -0.73991,0.78756 -0.26497,0.29473 -0.21062,0.94961 0.20241,1.05632 0.39247,0.29922 1.07485,0.16073 1.28044,-0.26464 0.18922,-0.52162 0.90967,-0.51545 1.42396,-0.68458 0.8975,-0.46668 1.20593,0.0691 1.5855,0.4205 0.0129,0.39901 0.51047,0.60982 0.36995,1.15574 0.12375,0.55321 0.19312,1.28303 0,1.83809 -0.48456,0.19513 -1.07512,0.2168 -1.63836,0.20821 -0.71466,0.0823 -1.59151,0.24277 -2.06116,-0.4207 -0.41029,-0.17007 -1.10404,-0.59656 -1.53267,-0.4205 -0.17012,0.5332 -0.59456,1.50073 0.26424,1.68072 0.49212,0.0785 1.03676,0.0468 1.48071,0.15512 0.57691,-0.12149 0.7023,0.38594 1.10897,0.68254 0.35079,0.32967 0.69754,1.14003 0.68705,1.78649 0.001,0.78103 0.008,1.60542 -0.21141,2.31057 -0.39109,0.48349 -0.95584,0.49956 -1.58552,0.63001 -0.55938,0.1084 -0.5863,-0.49825 -0.8456,-0.84046 -0.42924,-0.31641 -0.51695,-0.86251 -0.47565,-1.47048 -0.17902,-0.4119 -0.3096,-0.86232 -0.87336,-0.78775 -0.80568,-0.2039 -0.66281,0.61918 -1.02926,1.10267 -0.21257,0.4865 -0.0588,1.12566 -0.10571,1.68073 0.3843,0.26446 0.56675,1.08361 0.90634,1.54075 0.10286,0.6687 0.5257,1.27834 0.30925,1.97826 -0.33882,0.62533 -1.08132,1.06491 -1.49268,1.23274 -0.77132,0.22558 -1.58089,-0.55245 -1.62549,-1.23274 -0.0522,-0.66646 -0.10457,-1.2649 -0.66064,-1.62784 -0.50285,-0.70945 -1.40276,-0.51097 -2.14045,-0.47321 -0.48097,0.2039 -0.45719,0.80271 -0.47565,1.31311 -0.13531,0.5945 0.34803,0.9124 0.52851,1.36599 0.3626,0.49863 0.0139,1.41404 -0.21143,1.52281 -0.2587,0.50872 -0.80614,0.52424 -1.3741,0.52517 -0.59938,0.31229 -2.23519,0.4506 -1.4798,-0.68253 0.22894,-0.53247 0.51515,-1.00119 0.42282,-1.65513 0.0443,-0.58328 -0.11016,-0.98474 -0.31712,-1.44357 -0.32857,-0.28183 -0.76201,-0.42929 -1.32126,-0.68309 -0.34037,-0.043 -1.11976,-0.39023 -1.42025,-0.1046 -0.21395,0.72254 -0.14636,1.58467 0.20467,2.25636 0.30946,0.39882 0.65403,0.87372 0.63421,1.44562 0.05,0.55431 -0.85117,0.099 -1.21556,0.39471 -0.60296,0.0561 -1.226714,0 -1.646624,-0.44835 -0.48862,-0.26895 -0.90696,-0.23867 -1.04875,-0.86476 0.14968,-0.76532 1.21002,0.27753 1.48381,-0.26015 0.184804,-0.85129 0.404054,-1.72502 0.418814,-2.57538 -0.13137,-0.26016 -0.642924,-0.78233 -0.898464,-0.99783 -0.5018,-0.11212 -1.26032,-0.77317 -1.95546,-0.4205 -0.74161,0.35547 -0.28745,1.28096 -0.58136,1.8906 -0.0323,0.50386 -1.11251,0.48742 -1.42696,0.31659 -0.57538,-0.11773 -1.10534,-0.69654 -1.3741,-1.26058 -0.50156,-0.52778 -0.25986,-1.36208 -0.31712,-2.04853 0.43694,-0.22109 1.16049,-0.18129 1.69121,-0.10461 0.78816,0.19511 1.21707,-0.0823 1.05701,-0.99782 0.14525,-0.58067 0.0536,-1.32825 -0.42283,-1.62821 -0.57605,-0.29061 -1.34565,-0.60198 -1.95546,-0.47266 -0.56692,0.0561 -0.78134,0.73375 -1.1606,0.81393 -0.28722,0.38593 -0.976846,0.25585 -1.380249,0.1439 -0.630599,0.0617 -0.870198,-0.47956 -0.78873,-1.06322 0.01532,-0.75282 -0.09971,-1.65046 0.317122,-2.20404 0.572494,-0.3037 1.499007,-0.5474 2.219707,-0.47283 0.30199,0.28631 0.48352,0.91203 1.03103,0.84045 0.50221,0.0915 0.85654,-0.14391 0.86886,-0.63563 0.042,-0.42928 0.25999,-1.18471 -0.0651,-1.51775 -0.0752,-0.30351 -0.80533,-0.51432 -1.35906,-0.47264 -0.63949,0.16072 -1.37481,0.0785 -2.03519,0.208 -0.582139,0 -0.995515,-0.26015 -0.871583,-0.84027 -0.0491,-0.68814 0.184562,-1.38114 0.951304,-1.57551 0.382731,-0.47957 1.378759,-0.29043 1.691209,0.10471 0.47481,0.27324 0.91173,0.77112 1.5864,0.73505 0.60751,0.14391 0.84056,-0.33828 0.73902,-0.89279 0.0717,-0.48404 -0.3442,-0.87596 -0.68705,-0.9453 -0.50418,-0.2168 -1.11356,-0.24296 -1.63837,-0.4207 -0.62144,-0.29491 -1.08833,-0.39901 -0.9456,-1.25928 0.29594,-0.35995 1.17224,-0.5147 1.68551,-0.36856 0.56124,0.17382 0.9354,0.44706 1.47356,0.69899 0.44404,0.25156 0.58787,0.50648 1.01041,0.66646 l 0.21141,0 0.26425,0.1046 0,0 z"
       id="path6342"
       inkscape:connector-curvature="0"
       inkscape:export-filename="C:\Users\dan\Desktop\Projects\ballbreaker\ballbreaker\Assets\Images\png\path6342.png"
       inkscape:export-xdpi="90"
       inkscape:export-ydpi="90" />
    <path
       sodipodi:type="arc"
       style="fill:url(#radialGradient5148);fill-opacity:1;stroke:none"
       id="path5786"
       sodipodi:cx="337.14285"
       sodipodi:cy="220.93361"
       sodipodi:rx="94.285713"
       sodipodi:ry="108.57143"
       d="m 431.42857,220.93361 a 94.285713,108.57143 0 1 1 -188.57143,0 94.285713,108.57143 0 1 1 188.57143,0 z"
       transform="matrix(0.28856091,0,0,0.23547712,7.6993979,918.74953)" />
    <text
       xml:space="preserve"
       style="font-size:21.46035957px;font-style:normal;font-weight:normal;line-height:125%;letter-spacing:0px;word-spacing:0px;fill:#000000;fill-opacity:1;stroke:none;filter:url(#filter3952);font-family:Sans"
       x="8.858181"
       y="961.36157"
       id="text3134"
       sodipodi:linespacing="125%"
       transform="matrix(1.8661905,0,0,1.9915102,32.833926,-916.03028)"><tspan
         sodipodi:role="line"
         x="8.858181"
         y="961.36157"
         id="tspan3136"
         style="font-style:normal;font-variant:normal;font-weight:normal;font-stretch:normal;fill:#000000;fill-opacity:1;font-family:monofur;-inkscape-font-specification:monofur">'em</tspan></text>
    <text
       transform="scale(0.96802527,1.0330309)"
       sodipodi:linespacing="125%"
       id="text3130"
       y="966.60333"
       x="50.995552"
       style="font-size:41.37197495px;font-style:normal;font-weight:normal;line-height:125%;letter-spacing:0px;word-spacing:0px;fill:#ffffff;fill-opacity:1;stroke:none;font-family:Sans"
       xml:space="preserve"><tspan
         style="font-style:normal;font-variant:normal;font-weight:normal;font-stretch:normal;fill:#ffffff;fill-opacity:1;font-family:monofur;-inkscape-font-specification:monofur"
         id="tspan3132"
         y="966.60333"
         x="50.995552"
         sodipodi:role="line">'em</tspan></text>
    <text
       sodipodi:linespacing="125%"
       id="text5191"
       y="999.69531"
       x="3.2126136"
       style="font-size:12.60887718px;font-style:normal;font-weight:normal;line-height:125%;letter-spacing:0px;word-spacing:0px;fill:#000000;fill-opacity:1;stroke:none;filter:url(#filter5231);font-family:Sans"
       xml:space="preserve"
       transform="matrix(3.1762638,0,0,2.8567722,28.15259,-1891.6057)"><tspan
         style="font-style:normal;font-variant:normal;font-weight:normal;font-stretch:normal;fill:#000000;fill-opacity:1;font-family:monofur;-inkscape-font-specification:monofur"
         id="tspan5193"
         y="999.69531"
         x="3.2126136"
         sodipodi:role="line">break</tspan></text>
    <text
       xml:space="preserve"
       style="font-size:37.98153305px;font-style:normal;font-weight:normal;line-height:125%;letter-spacing:0px;word-spacing:0px;fill:#ffffff;fill-opacity:1;stroke:none;font-family:Sans"
       x="36.37648"
       y="1016.7892"
       id="text5171"
       sodipodi:linespacing="125%"
       transform="scale(1.0544365,0.94837382)"><tspan
         sodipodi:role="line"
         x="36.37648"
         y="1016.7892"
         id="tspan5179"
         style="font-style:normal;font-variant:normal;font-weight:normal;font-stretch:normal;fill:#ffffff;fill-opacity:1;font-family:monofur;-inkscape-font-specification:monofur">break</tspan></text>
    <text
       sodipodi:linespacing="125%"
       id="text5235"
       y="998.74152"
       x="26.076496"
       style="font-size:26.80530548px;font-style:normal;font-weight:normal;line-height:125%;letter-spacing:0px;word-spacing:0px;fill:#000000;fill-opacity:1;stroke:none;filter:url(#filter5263);font-family:Sans"
       xml:space="preserve"
       transform="matrix(1.9885933,0,0,1.8689278,-16.807732,-829.24405)"><tspan
         style="font-style:normal;font-variant:normal;font-weight:normal;font-stretch:normal;fill:#000000;fill-opacity:1;font-family:monofur;-inkscape-font-specification:monofur"
         y="998.74152"
         x="26.076496"
         id="tspan5237"
         sodipodi:role="line">down</tspan></text>
    <text
       xml:space="preserve"
       style="font-size:51.6761322px;font-style:normal;font-weight:normal;line-height:125%;letter-spacing:0px;word-spacing:0px;fill:#ffffff;fill-opacity:1;stroke:none;font-family:Sans"
       x="33.976933"
       y="1070.0261"
       id="text5183"
       sodipodi:linespacing="125%"
       transform="scale(1.0315178,0.96944521)"><tspan
         sodipodi:role="line"
         id="tspan5185"
         x="33.976933"
         y="1070.0261"
         style="font-style:normal;font-variant:normal;font-weight:normal;font-stretch:normal;fill:#ffffff;fill-opacity:1;font-family:monofur;-inkscape-font-specification:monofur">down</tspan></text>
  </g>
</svg>
